<?xml version="1.0" encoding="UTF-8" standalone="no"?><!DOCTYPE svg PUBLIC "-//W3C//DTD SVG 1.1//EN" "http://www.w3.org/Graphics/SVG/1.1/DTD/svg11.dtd">
<svg width="100%" height="100%" viewBox="0 0 1280 688" version="1.1" 
  xmlns="http://www.w3.org/2000/svg" 
  xmlns:xlink="http://www.w3.org/1999/xlink" xml:space="preserve" 
  xmlns:serif="http://www.serif.com/" style="fill-rule:evenodd;clip-rule:evenodd;stroke-linejoin:round;stroke-miterlimit:1.41421;">
  <g>
    <path d="M322.5,1.1c-7.1,0.8 -10.5,2.9 -10.5,6.5c0,1 -1.5,1.4 -5.5,1.4c-3.9,0 -5.6,0.4 -6.3,1.6c-0.5,1 -3.2,2.1 -6.3,2.6c-3,0.6 -7.2,1.3 -9.4,1.7l-4,0.7l3.3,0.8c1.8,0.4 3.7,1.6 4.2,2.7c1.7,3.1 4.8,4.2 7.9,2.9c2.1,-0.8 3.5,-0.7 6.4,0.5c5.5,2.3 12.7,1.9 19.3,-1c6.4,-2.8 9.4,-3.2 9.4,-1c0,4.4 -18.8,10.3 -25.7,8.1c-1.2,-0.4 -3.2,-0.2 -4.3,0.4c-1.8,0.9 -1.9,1.4 -0.9,2.6c2,2.4 8.5,5.4 11.8,5.4c3.5,0 4.8,1.5 3.1,3.5c-2.6,3.1 -16.6,0.8 -18,-2.9c-0.4,-1.2 -1.5,-2.8 -2.4,-3.5c-0.9,-0.7 -1.6,-2.4 -1.6,-3.7c0,-1.4 -0.6,-2.4 -1.4,-2.4c-0.8,0 -4.2,-1.3 -7.5,-2.9c-7.3,-3.4 -12.6,-3 -8.9,0.7c0.9,0.9 0.6,1.2 -1.5,1.2c-1.5,0 -3.6,0.9 -4.8,2.1c-1.9,1.9 -1.9,2.3 -0.6,3.6c0.8,0.8 3.7,1.9 6.3,2.4c2.7,0.5 5.2,1.3 5.8,1.9c0.9,0.9 0.6,1.1 -3.8,2.4c-1.2,0.4 -1.2,1 -0.3,3c1,2.2 1.8,2.6 5.8,2.6c3.1,0 5.5,-0.7 7.2,-2c1.4,-1.1 3,-2 3.7,-2c1.7,0 9.4,4.7 11.5,7c1.7,1.8 1.7,2 0.1,2.6c-1.9,0.7 -6.6,-1 -6.6,-2.5c0,-0.5 1.2,-0.4 2.7,0.4c3.3,1.7 4.4,1.1 1.7,-1c-2.4,-1.9 -5.5,-1.9 -8,-0.1c-1.9,1.5 -1.9,1.5 0,2.9c1,0.8 1.6,1.9 1.2,2.5c-1.1,1.8 -2.6,1.4 -1.9,-0.4c0.5,-1.4 0.3,-1.5 -1.5,-0.5c-1.2,0.7 -2.2,1.6 -2.2,2.1c0,1.1 3.1,1.6 18.3,2.9c10.1,0.9 12.4,0.8 15.8,-0.5c4.3,-1.8 5.3,-3.4 1.6,-2.7c-2.7,0.5 -9.7,-2.1 -9.7,-3.6c0,-0.6 2.1,-1.1 4.8,-1.1c6.4,-0.1 17.2,-5.1 17.2,-8.2c0,-0.4 -1.6,-0.8 -3.5,-0.8c-2.3,0 -3.5,-0.5 -3.5,-1.3c0,-1.4 4,-3.7 6.5,-3.7c0.8,0 1.5,-0.7 1.5,-1.5c0,-1.8 3.6,-2 7.6,-0.5c2.4,0.9 3.3,0.7 6.8,-1.8c2.3,-1.6 7.9,-4.9 12.6,-7.2c7.5,-3.8 8.2,-4.4 6,-5c-1.6,-0.4 -2.6,-0.2 -2.8,0.6c-0.4,1.7 -6.3,3.7 -7.5,2.5c-1.6,-1.6 0.1,-2.8 7.6,-5.6c3.9,-1.5 9.2,-3.6 11.7,-4.7l4.5,-1.9l-2.9,-2.6c-2.7,-2.3 -3.6,-2.5 -9,-2.1c-6.9,0.6 -8.6,0.2 -8.6,-1.8c0,-0.7 -1,-1.6 -2.2,-1.8c-4.3,-0.9 -33.3,-1.2 -40.3,-0.5Z" style="fill:#313131;fill-rule:nonzero;"/>
    <path d="M463.3,2c-0.6,2.4 -3.9,2.6 -8.6,0.7c-1.8,-0.8 -6.5,-1.3 -10.7,-1.3c-7,0.1 -7.5,0.3 -7.8,2.3c-0.4,2.6 1.5,3.1 2.4,0.8c0.9,-2.2 2.7,-1.8 5.4,0.9c1.4,1.6 2,3.1 1.6,4.2c-0.6,1.5 -1.9,1.6 -11.4,1.2c-12,-0.7 -13.2,-0.5 -13.2,2.3c0,2.3 -3.2,2.6 -5,0.4c-0.7,-0.8 -1.6,-1.5 -2.1,-1.5c-0.5,0 -0.9,0.7 -0.9,1.5c0,1.2 -1.6,1.5 -7.7,1.6c-10.1,0.1 -15.7,1.7 -16.1,4.7c-0.4,2.5 -3.8,5.3 -5.7,4.6c-0.7,-0.3 -1.6,-0.1 -2,0.5c-0.3,0.6 -1.8,1.1 -3.3,1.1c-3.9,0.1 -12,3.9 -10.4,4.9c0.8,0.4 3.2,0.5 5.5,0c2.3,-0.4 4.5,-0.5 5,-0.2c1.2,0.7 -3.3,8 -5.7,9.1c-2.1,1.1 -4.2,1.6 -12.8,3.2c-5.8,1.1 -10.5,3.4 -8.9,4.4c0.6,0.4 4.5,1 8.6,1.3c11.3,0.9 12.2,4.2 1.6,5.9c-4.1,0.7 -6.7,2.4 -3.6,2.4c0.8,0 1.8,0.7 2.2,1.6c1,2.6 4.7,3.4 11.5,2.4c3.5,-0.5 10.6,-1.1 15.9,-1.3l9.6,-0.5l1.6,2.8c1,1.5 3.2,4.6 5,6.9c5.7,7.1 8.1,11.5 8.7,16.1l0.6,4.5l1.4,-2.8c1.7,-3.4 4.1,-3.2 5.4,0.6c1.2,3.3 0.1,5.6 -3.5,7.4l-2.4,1.3l2.5,0c2.7,0 9,3.4 9,4.8c0,0.5 -0.9,1.7 -2,2.7c-2.4,2.2 -2.5,3.8 -0.4,5.6c1.4,1.1 1.1,1.5 -2,3.1c-4.1,2.1 -5,4.4 -1.1,2.6c1.4,-0.6 2.8,-0.8 3.1,-0.5c0.8,0.8 -1.4,6.6 -3.2,8.7c-0.7,0.9 -1.1,2.6 -0.8,3.8c0.5,1.8 1,2 2.5,1.1c1.7,-0.9 1.9,-0.6 1.9,2.8c0,6.9 8.8,17.7 15.9,19.5c2.8,0.7 4.5,1.8 4.9,3c0.6,2.4 1.9,2.3 5.9,-0.8c2.8,-2.1 3.3,-3.1 3.3,-6.8c0,-2.3 0.7,-5.1 1.5,-6.2c0.8,-1 1.5,-2.7 1.5,-3.8c0,-2.8 11.5,-13.6 14.6,-13.6c5,0 9.4,-2.7 11.3,-7c1,-2.3 3,-4.8 4.5,-5.6c1.4,-0.8 3.8,-2.1 5.4,-2.9c1.7,-0.9 5.5,-1.5 10.2,-1.5c4.1,-0.1 9.3,-0.8 11.5,-1.6c2.2,-0.8 6.4,-2.2 9.4,-3.1c6.5,-2 4.9,-3.1 -4.6,-3.2c-4.7,-0.1 -6.3,-0.5 -6.3,-1.5c0,-0.8 0.6,-1.6 1.4,-1.9c0.8,-0.3 1.6,-1.6 1.8,-2.9c0.2,-1.8 1,-2.4 3.9,-2.6c3,-0.3 3.7,0.1 4.7,2.3c1.3,2.7 3.7,3.3 4.5,1.1c1.3,-3.4 -5.2,-7.6 -11.6,-7.6c-4.8,0 -4.9,-0.1 -4.3,-2.6c0.5,-1.9 0.1,-3 -1.6,-4.4c-2.9,-2.3 -1.8,-3.5 3.2,-3.2c3.4,0.2 4,0 4,-1.7c0,-3.3 2.7,-3.2 9.5,0.4c7.7,4.1 8.6,4.3 5.6,1.1c-2.9,-3 -2,-4.6 2.5,-4.6c1.9,0 3.4,-0.3 3.4,-0.8c-0.1,-1.7 -3.7,-4.9 -6.3,-5.6c-3.7,-0.9 -3.4,-3.1 0.6,-4.4l3.2,-1l-3.7,-0.1c-2,-0.1 -4,-0.6 -4.4,-1.3c-1.3,-2 2.8,-3.9 7.9,-3.6c2.8,0.2 4.6,-0.1 4.3,-0.7c-0.1,-0.6 -1,-0.9 -1.8,-0.7c-1.7,0.3 -5.8,-3.4 -5.8,-5.3c0,-0.7 -0.3,-2 -0.6,-2.8c-0.3,-0.9 0.8,-2.2 3,-3.5c2,-1.2 3.6,-2.7 3.6,-3.3c0,-0.7 0.7,-2.1 1.7,-3.1c1.5,-1.7 1.5,-1.8 -1.4,-1.2c-2,0.4 -3.3,0.1 -3.8,-0.7c-1.3,-1.9 2.1,-3.7 8.5,-4.4c3.2,-0.4 6.1,-1.2 6.3,-1.9c0.3,-0.7 3.4,-2.3 6.8,-3.6c5.9,-2.1 6.2,-2.3 3.9,-3.2c-1.4,-0.5 -5,-0.7 -8,-0.4c-16,1.7 -21.8,2.5 -24.2,3.1c-2.4,0.6 -2.8,0.4 -2.8,-1.5c0,-2.2 -0.1,-2.3 -9.7,-1.7c-7.9,0.4 -11.7,1.2 -19.5,4.1c-8.8,3.2 -12.8,3.7 -12.8,1.6c0,-1 14.4,-7.5 19.7,-8.9c2.3,-0.6 7.8,-1.6 12.3,-2.2c4.6,-0.5 9.6,-1.6 11.4,-2.4c3,-1.3 2.8,-1.3 -4.1,-1.2c-7.7,0.2 -9.3,-0.4 -7.3,-2.8c1.1,-1.3 0.6,-1.5 -4,-1.5c-2.9,0 -11.1,0.7 -18.2,1.6c-7.1,0.9 -13.1,1.4 -13.5,1.1c-1.2,-1.2 1.9,-3.7 5.6,-4.4l3.6,-0.7l-5,-0.7c-2.7,-0.4 -8.5,-0.8 -12.8,-0.8c-7.1,-0.1 -7.9,0.1 -8.4,1.9Zm-64.7,16.1c0.6,1 -1.1,2.9 -2.6,2.9c-0.3,0 -1.1,-0.4 -1.9,-0.9c-1.7,-1.1 -0.5,-3.1 1.9,-3.1c1,0 2.2,0.5 2.6,1.1Zm113.2,70c-0.2,0.6 -0.8,1 -1.3,1c-0.5,0 -1.1,-0.4 -1.3,-1c-0.2,-0.6 0.4,-1.1 1.3,-1.1c0.9,0 1.5,0.5 1.3,1.1Z" style="fill:#313131;fill-rule:nonzero;"/>
    <path d="M426.5,3c-0.4,0.7 -0.3,1.6 0.3,2.2c1.4,1.4 4.5,0.2 4,-1.5c-0.6,-1.6 -3.4,-2.1 -4.3,-0.7Z" style="fill:#313131;fill-rule:nonzero;"/>
    <path d="M420.5,4.9c-0.7,1.2 1.2,2.4 2.5,1.6c1.1,-0.7 0.4,-2.5 -1,-2.5c-0.5,0 -1.1,0.4 -1.5,0.9Z" style="fill:#313131;fill-rule:nonzero;"/>
    <path d="M542.9,13.1c-1.1,0.6 -1.1,1.1 -0.2,2c1.2,1.2 4.3,0.6 4.3,-1c0,-1.4 -2.5,-2 -4.1,-1Z" style="fill:#313131;fill-rule:nonzero;"/>
    <path d="M815.7,15.9c-0.3,1.4 -1.1,1.8 -2.6,1.4c-1.4,-0.4 -2.1,-0.1 -2.1,1c0,1.4 2.7,4.4 3.4,3.6c1.5,-1.7 3.4,-6.9 2.7,-7.3c-0.5,-0.3 -1.1,0.3 -1.4,1.3Z" style="fill:#313131;fill-rule:nonzero;"/>
    <path d="M828.5,15.9c-0.8,1.5 0.3,3.1 2.1,3.1c0.9,0 1.4,-0.7 1.2,-1.7c-0.4,-2 -2.4,-2.8 -3.3,-1.4Z" style="fill:#313131;fill-rule:nonzero;"/>
    <path d="M787.7,17.6c-0.8,0.8 0.1,2.4 1.4,2.4c0.5,0 0.9,-0.7 0.9,-1.5c0,-1.5 -1.2,-2 -2.3,-0.9Z" style="fill:#313131;fill-rule:nonzero;"/>
    <path d="M803.2,19.1c-1.3,0.5 -3.5,0.6 -4.9,0.3c-1.9,-0.5 -2.4,-0.3 -2.1,0.7c0.3,0.8 1.1,1.4 1.9,1.5c0.8,0 2.2,0.4 3.2,0.8c2,0.9 6.7,-0.7 6.7,-2.3c0,-1.4 -2.3,-1.9 -4.8,-1Z" style="fill:#313131;fill-rule:nonzero;"/>
    <path d="M819.6,18.7c-1.1,1.1 -0.6,2.3 0.9,2.3c0.8,0 1.5,-0.4 1.5,-0.9c0,-1.3 -1.6,-2.2 -2.4,-1.4Z" style="fill:#313131;fill-rule:nonzero;"/>
    <path d="M927.7,18.6c-1.4,1.4 -0.7,3.5 1.1,3.2c0.9,-0.2 1.7,-1 1.7,-1.7c0,-1.6 -1.8,-2.5 -2.8,-1.5Z" style="fill:#313131;fill-rule:nonzero;"/>
    <path d="M364,20c-1.3,0.8 -1.2,1 0.3,1c0.9,0 1.7,-0.5 1.7,-1c0,-1.2 -0.1,-1.2 -2,0Z" style="fill:#313131;fill-rule:nonzero;"/>
    <path d="M322.7,22.6c-2.7,1.4 -4.6,2.8 -4.3,3.1c0.8,0.8 9.2,-2.5 10.6,-4.3c1.9,-2.2 -0.7,-1.7 -6.3,1.2Z" style="fill:#313131;fill-rule:nonzero;"/>
    <path d="M940.1,22.3c-5.9,3 -5.2,5.1 1.9,5.5c8.8,0.5 11.6,-2.9 5.1,-6.2c-2.5,-1.3 -3.1,-1.3 -7,0.7Z" style="fill:#313131;fill-rule:nonzero;"/>
    <path d="M832.8,22.2c-4.1,1.4 -3.7,3.9 0.5,3.1c3.8,-0.7 5.2,-1.7 4.3,-3.2c-0.8,-1.3 -1.2,-1.3 -4.8,0.1Z" style="fill:#313131;fill-rule:nonzero;"/>
    <path d="M770.5,23.4c-1,0.7 -1.6,2 -1.3,2.8c0.7,1.7 8.9,5.9 10.1,5.1c1.3,-0.8 0.7,-2.1 -1.3,-2.6c-2.3,-0.6 -2.7,-3.5 -0.5,-4.3c2.6,-1.1 1.6,-2.4 -1.8,-2.4c-1.8,0 -4.2,0.6 -5.2,1.4Z" style="fill:#313131;fill-rule:nonzero;"/>
    <path d="M782.1,23.4c-1,1.2 -0.9,2.1 0.5,4.3c3.1,4.9 7.4,7.2 7.4,3.8c0,-0.8 -0.9,-1.5 -2,-1.5c-2.4,0 -2.7,-1.5 -0.4,-2.4c2.7,-1 5.2,-0.7 5.7,0.8c0.5,1.1 2,1.4 6.1,1.2c6.2,-0.3 7.1,-0.8 6.2,-3.1c-0.5,-1.3 -1,-1.4 -2.7,-0.5c-1.7,0.9 -2.5,0.8 -4,-0.6c-1.1,-1 -3.6,-1.8 -5.9,-1.8c-2.1,-0.1 -4.2,-0.4 -4.6,-0.9c-1.2,-1.2 -5.1,-0.8 -6.3,0.7Z" style="fill:#313131;fill-rule:nonzero;"/>
    <path d="M821.1,24.4c-1.3,1.4 -1.8,2.7 -1.3,3c1.6,0.9 3.9,-0.3 5.7,-3c1.4,-2.2 1.4,-2.4 -0.3,-2.4c-1,0 -2.9,1.1 -4.1,2.4Z" style="fill:#313131;fill-rule:nonzero;"/>
    <path d="M808.4,25.6c1.1,4.5 2.5,5.2 4.7,2.5c2.4,-2.9 2.4,-4.1 0,-4.1c-1.1,0 -2.7,-0.3 -3.7,-0.7c-1.5,-0.5 -1.6,-0.2 -1,2.3Z" style="fill:#313131;fill-rule:nonzero;"/>
    <path d="M685.7,30.1c-1.7,3.1 -1.7,3.1 -3.5,1.1c-0.9,-1.1 -3.4,-2.3 -5.4,-2.6c-3.9,-0.7 -4.7,0.1 -2.6,2.2c0.9,0.9 0.6,1.7 -1.2,3.7l-2.3,2.4l-2.9,-2.4c-3.6,-3 -3.9,-3 -7.1,-0.5c-2.4,1.9 -6.7,2.8 -6.7,1.3c0,-0.3 0.7,-1.5 1.7,-2.5c1.5,-1.7 1.5,-1.8 -0.3,-1.8c-3.3,0 -9.4,2 -9.4,3.1c0,0.6 0.9,0.8 1.9,0.4c1.1,-0.3 2.2,-0.1 2.6,0.5c0.9,1.4 -2.3,5 -4.3,5c-1.2,0 -1.2,0.3 -0.2,1.5c1.6,1.9 4.4,2 3.7,0.1c-0.5,-1.1 0,-1.1 2.3,0.2c2.7,1.6 3,1.5 7,-0.7c6.2,-3.5 10.1,-1 4,2.6c-3.5,2 -3.9,3.3 -1,3.3c2.8,0 2.5,1.5 -0.7,3.9c-1.9,1.4 -2.3,2 -1.2,2.1c0.9,0 2.4,0.9 3.4,2c1,1.1 2.2,2 2.6,2c0.4,0 2.2,-2.7 4,-5.9c1.7,-3.3 4,-6.8 5,-7.7c1.8,-1.6 2.2,-1.6 5.4,-0.1c2.4,1.2 3.4,2.2 3.2,3.6c-0.1,1.1 0.1,2 0.6,2c4.1,0.4 6.8,-0.1 6.5,-1.1c-0.2,-0.6 -2.6,-2.3 -5.4,-3.7c-2.7,-1.4 -6,-3.6 -7.2,-4.9c-1.2,-1.2 -2.6,-2.2 -3.2,-2.2c-0.5,0 -1,-0.4 -1,-0.9c0,-1.8 3.5,-2.1 11.1,-1c7.7,1.2 7.7,1.2 12.3,-1.7c2.5,-1.6 4.6,-3.2 4.6,-3.5c0,-0.4 -2.4,-1 -5.2,-1.3c-2.9,-0.4 -6.2,-0.9 -7.3,-1.2c-1.5,-0.3 -2.5,0.4 -3.8,2.7Z" style="fill:#313131;fill-rule:nonzero;"/>
    <path d="M720.1,28.9c-1.7,1.1 -0.5,3.1 1.9,3.1c2.4,0 3.6,-2 1.9,-3.1c-0.8,-0.5 -1.6,-0.9 -1.9,-0.9c-0.3,0 -1.1,0.4 -1.9,0.9Z" style="fill:#313131;fill-rule:nonzero;"/>
    <path d="M737,30.6c0,0.9 0.5,1.4 1.2,1.2c1.8,-0.6 2.1,-2.8 0.4,-2.8c-0.9,0 -1.6,0.7 -1.6,1.6Z" style="fill:#313131;fill-rule:nonzero;"/>
    <path d="M816.7,29.6c-0.8,0.8 0.1,2.4 1.4,2.4c0.5,0 0.9,-0.7 0.9,-1.5c0,-1.5 -1.2,-2 -2.3,-0.9Z" style="fill:#313131;fill-rule:nonzero;"/>
    <path d="M931.5,30c-0.7,1.1 3.9,2.5 5.4,1.5c0.6,-0.3 1.1,-1 1.1,-1.6c0,-1.2 -5.7,-1.2 -6.5,0.1Z" style="fill:#313131;fill-rule:nonzero;"/>
    <path d="M942.9,30.4c-1.9,0.7 -4.7,1.9 -6.3,2.8l-2.9,1.5l7.4,1.8c4.1,1 9.4,2.7 11.8,3.7c5.2,2.2 6.1,1.5 6.1,-4.8c0,-5.4 -0.8,-6 -4.1,-2.8l-2.8,2.7l-1,-2.5c-1.2,-3.1 -3.8,-3.9 -8.2,-2.4Z" style="fill:#313131;fill-rule:nonzero;"/>
    <path d="M251,31.5c0,1.6 2.7,3.2 3.7,2.1c0.7,-0.7 -1.6,-3.6 -2.8,-3.6c-0.5,0 -0.9,0.7 -0.9,1.5Z" style="fill:#313131;fill-rule:nonzero;"/>
    <path d="M545.7,33.6c-0.8,0.8 0.1,2.4 1.4,2.4c0.5,0 0.9,-0.7 0.9,-1.5c0,-1.5 -1.2,-2 -2.3,-0.9Z" style="fill:#313131;fill-rule:nonzero;"/>
    <path d="M233.3,36.8c1,1 1.7,2.3 1.7,2.9c0,0.6 1.1,0.8 2.6,0.5c1.8,-0.3 4,0.6 8,3.3c5.7,3.9 7.3,4.1 5.5,0.6c-2.4,-4.3 -11.2,-9.1 -16.9,-9.1c-2.4,0 -2.4,0.1 -0.9,1.8Z" style="fill:#313131;fill-rule:nonzero;"/>
    <path d="M964.8,40c-4.1,4.4 -4.9,6.7 -2,5.5c0.9,-0.3 4.6,-1.3 8.2,-2.1c3.6,-0.9 6.9,-1.9 7.4,-2.4c1.1,-1 -5.1,-5 -7.8,-5c-1.1,0 -3.6,1.8 -5.8,4Z" style="fill:#313131;fill-rule:nonzero;"/>
    <path d="M706.5,38c-0.4,0.7 -0.3,1.6 0.3,2.2c1.4,1.4 4.5,0.2 4,-1.5c-0.6,-1.6 -3.4,-2.1 -4.3,-0.7Z" style="fill:#313131;fill-rule:nonzero;"/>
    <path d="M699.2,40.1c0.2,0.6 0.8,1 1.3,1c0.5,0 1.1,-0.4 1.3,-1c0.2,-0.6 -0.4,-1.1 -1.3,-1.1c-0.9,0 -1.5,0.5 -1.3,1.1Z" style="fill:#313131;fill-rule:nonzero;"/>
    <path d="M208,43c-2.2,0.7 -2,0.8 1.5,1l4,0.1l-4.2,2.1c-4.1,1.9 -5.8,4.8 -3,4.8c2.2,0 9.7,-5.9 9.7,-7.5c0,-1.6 -3.7,-1.9 -8,-0.5Z" style="fill:#313131;fill-rule:nonzero;"/>
    <path d="M937.2,43.1c0.2,0.6 0.8,1 1.3,1c0.5,0 1.1,-0.4 1.3,-1c0.2,-0.6 -0.4,-1.1 -1.3,-1.1c-0.9,0 -1.5,0.5 -1.3,1.1Z" style="fill:#313131;fill-rule:nonzero;"/>
    <path d="M983.2,43.1c0.2,0.6 0.8,1 1.3,1c0.5,0 1.1,-0.4 1.3,-1c0.2,-0.6 -0.4,-1.1 -1.3,-1.1c-0.9,0 -1.5,0.5 -1.3,1.1Z" style="fill:#313131;fill-rule:nonzero;"/>
    <path d="M260.9,45c1.9,1.6 2.6,1.8 3.8,0.8c1.3,-1 1.2,-1.3 -0.4,-1.9c-1,-0.4 -2.7,-0.8 -3.8,-0.8c-1.9,0 -1.8,0.1 0.4,1.9Z" style="fill:#313131;fill-rule:nonzero;"/>
    <path d="M542.2,46.1c0.2,0.6 0.8,1 1.3,1c0.5,0 1.1,-0.4 1.3,-1c0.2,-0.6 -0.4,-1.1 -1.3,-1.1c-0.9,0 -1.5,0.5 -1.3,1.1Z" style="fill:#313131;fill-rule:nonzero;"/>
    <path d="M932.7,45.6c-0.8,0.8 0.1,2.4 1.4,2.4c0.5,0 0.9,-0.7 0.9,-1.5c0,-1.5 -1.2,-2 -2.3,-0.9Z" style="fill:#313131;fill-rule:nonzero;"/>
    <path d="M198,47c0,0.5 0.5,1 1,1c0.6,0 1,-0.5 1,-1c0,-0.6 -0.4,-1 -1,-1c-0.5,0 -1,0.4 -1,1Z" style="fill:#313131;fill-rule:nonzero;"/>
    <path d="M231.6,47.9c-0.4,0.7 -0.5,1.5 -0.2,1.8c0.9,0.9 1.9,-0.4 1.4,-1.8c-0.4,-1.1 -0.6,-1.1 -1.2,0Z" style="fill:#313131;fill-rule:nonzero;"/>
    <path d="M925.5,48c-0.4,0.6 -0.3,1.6 0.3,2.2c0.6,0.6 1.2,0.6 1.7,-0.2c0.4,-0.6 0.3,-1.6 -0.3,-2.2c-0.6,-0.6 -1.2,-0.6 -1.7,0.2Z" style="fill:#313131;fill-rule:nonzero;"/>
    <path d="M969.6,51.1c-2,2.4 -2.4,3.5 -1.6,4.9c1.5,2.8 1.3,3 -3.4,3c-2.4,0 -6.3,0.7 -8.7,1.6c-2.8,0.9 -5.8,1.3 -8.3,0.9c-2.1,-0.3 -7.7,0.2 -12.5,1c-4.7,0.9 -11,2 -14,2.6c-3,0.5 -6.5,1.6 -7.9,2.5l-2.4,1.6l2.1,2.2c3.2,3.4 2.8,5.7 -0.9,4.9c-1.7,-0.3 -6.5,-0.6 -10.8,-0.7c-7.7,-0.1 -7.7,-0.1 -8,2.6c-0.3,2.3 0.2,3 3.2,4.2c3.7,1.6 6.6,5.9 6.6,10.1c0,2 -0.5,2.5 -2.5,2.5c-2.1,0 -2.5,-0.5 -2.5,-2.8c0,-1.6 -0.8,-3.6 -1.7,-4.4c-2.7,-2.4 -9.1,-4.1 -12.5,-3.4c-1.8,0.3 -3.7,0.1 -4.4,-0.5c-3.1,-2.6 -1.1,1 2.2,4.1c2.6,2.3 3.3,3.5 2.3,4c-2.8,1.8 -9.3,-2.4 -11.3,-7.4l-1.2,-3l-2.3,3.7c-2,3.2 -2.1,4.2 -1.2,6.9c0.6,1.7 1.1,4.1 1.1,5.4c0,1.8 0.7,2.3 4.2,2.9c4.5,0.8 10.8,5.9 10.8,8.8c0,0.9 1,2.3 2.2,3.1c1.7,1.2 1.9,1.9 1,2.8c-1.9,1.9 -6.1,-0.7 -7.9,-5c-2.9,-6.9 -5.2,-6.9 -9.3,0.2c-4,7.1 -9.4,11.9 -12.3,11c-4.3,-1.3 -7.8,-3.5 -7.4,-4.7c0.6,-1.9 4.7,-2 6.7,-0.2c1.7,1.6 1.9,1.5 3.5,-0.9c2.8,-4.3 4.1,-14.7 2.7,-21.6c-0.7,-3.3 -1,-7.5 -0.7,-9.3c0.8,-4.1 -1.1,-6 -5.6,-5.5c-2.5,0.2 -3.7,1.1 -5.2,3.8c-1,1.9 -3.2,4.9 -4.8,6.5c-1.6,1.7 -2.9,3.4 -2.9,3.7c0,0.4 1.8,2.8 4.1,5.4c2.2,2.5 3.9,5.4 3.7,6.3c-0.5,2.4 -4.4,2.5 -7.5,0.3c-3.4,-2.4 -9.6,-4.2 -14.5,-4.2c-2.7,0 -4.7,0.8 -7.1,3c-4.2,3.7 -8.2,4.1 -7.1,0.8l0.6,-2.1l-3.3,1.9c-1.9,1.1 -5.4,2.8 -7.8,3.8c-4.5,1.7 -4.5,1.7 -6.2,-0.5c-1.6,-2.2 -1.7,-2.2 -5.8,-0.6c-2.3,1 -5,1.7 -6,1.7c-1,0 -4.2,1.7 -7.2,3.8c-7.3,5.1 -8.8,5.6 -11,3.6c-2.4,-2.2 -2.4,-3.1 0.2,-3.9c1.8,-0.6 1.9,-0.9 0.8,-1.9c-2.2,-1.9 -6.8,-3.6 -7.4,-2.7c-0.2,0.5 0,2.2 0.6,3.9c0.6,1.7 0.9,4.3 0.7,5.9c-0.3,2.5 -0.8,2.9 -4.8,3.3c-5.2,0.7 -9,2.8 -9,5c0,3.9 -4.1,5 -9,2.5c-3.5,-1.8 -3.8,-1 -1,2c1.8,1.9 1.9,2.3 0.6,3.5c-2.5,2 -8.7,-1.7 -11.1,-6.7c-1.1,-2.3 -3.1,-5.3 -4.4,-6.7c-2.2,-2.3 -2.2,-2.6 -0.6,-3.2c0.9,-0.4 4,0.1 6.8,1.1c8.5,3.1 17.7,2.3 19.8,-1.7c1.5,-2.7 -0.5,-4.3 -12.1,-9.9c-4.7,-2.3 -9.7,-4.8 -11.2,-5.5c-1.5,-0.8 -5.6,-1.4 -9.5,-1.4c-3.8,0 -7.3,-0.3 -7.7,-0.7c-0.4,-0.4 0.3,-1.5 1.6,-2.5c2.2,-1.7 2.2,-1.8 0.3,-1.8c-1.1,0 -3.1,-0.7 -4.4,-1.6c-1.3,-0.9 -2.6,-1.3 -3,-0.8c-0.3,0.5 -2,1 -3.8,1c-2.5,0.1 -3,-0.2 -2.6,-1.4c0.5,-1.2 0.1,-1.4 -1.8,-0.9c-1.3,0.4 -3.1,0.7 -4,0.7c-1,0 -1.6,0.7 -1.5,1.7c0.1,1.5 -0.7,1.8 -4.6,1.8c-3.9,0 -4.7,0.3 -4.3,1.5c0.4,1.2 -0.9,2 -5,3.3c-3.1,0.9 -6.7,1.7 -8,1.7c-2.2,0 -2.4,0.3 -1.8,3c0.5,2.8 0.2,3.2 -2.6,4.3c-1.8,0.6 -3.4,2.1 -3.7,3.2c-0.3,1.1 -2.7,3.3 -5.4,5c-2.7,1.6 -5,3.9 -5.2,4.9c-0.2,1.3 -1.5,2.3 -3.5,2.8c-3.8,1 -3.7,0.8 -1.8,4.4c2,3.9 1.9,5.7 -0.5,7.9c-1.7,1.5 -2.4,1.6 -4.6,0.7c-3.2,-1.5 -4.4,-1.5 -4.4,0c0,0.7 -2,3.1 -4.6,5.3l-4.6,4l0.9,8.5c0.7,7.9 1,8.5 3.2,8.8c3.5,0.5 6.6,-0.5 10.1,-3.4c1.8,-1.6 3.5,-2.3 4,-1.8c1,1.1 6,13.3 6,14.8c0,0.7 0.7,2.1 1.5,3.4l1.6,2.2l3.7,-2c2,-1.1 4.7,-2 5.9,-2c2.1,0 2.3,-0.5 2.3,-4.8c0.1,-5 1.3,-7.4 4.4,-8.5c1,-0.4 1.6,-1 1.3,-1.4c-0.4,-0.3 -0.2,-1.2 0.4,-1.9c0.8,-1 0.6,-2 -1,-4c-1.4,-1.8 -2.1,-4.1 -2.1,-7.2c0,-3.9 0.5,-4.9 3.8,-8.1c2.1,-2 5,-4.3 6.4,-5.3c1.3,-0.9 3,-3.4 3.7,-5.8c1,-3.3 2,-4.5 4.8,-5.6c3.1,-1.3 3.7,-1.3 5.9,0.1c1.3,0.8 2.4,2.3 2.4,3.1c0,0.9 -2.5,4.4 -5.6,7.7c-3.1,3.4 -6,7.2 -6.5,8.5c-1.1,2.8 -0.2,9.5 1.6,11.9c1.2,1.6 1.6,1.6 7.4,0c9.9,-2.8 19.1,-1.9 19.1,1.7c0,1.5 -2.3,2 -13.7,3.2c-7.1,0.7 -8.7,2.6 -5.8,7c3,4.6 -0.2,9.9 -3.5,5.9c-1.6,-2 -4.6,-1.9 -5.4,0.1c-0.3,0.9 -0.6,2.8 -0.6,4.4c0,4.2 -0.9,5.7 -4.6,8c-2.7,1.7 -3.7,1.9 -5.5,1c-1.8,-1 -3.3,-0.7 -9.2,2l-7,3.3l-1.7,-2.3c-1.6,-2.1 -2,-2.2 -5,-1.1c-2.7,0.9 -3.8,0.8 -5.7,-0.5c-3.2,-2 -3.6,-3.5 -2.4,-7.9c0.8,-3 0.7,-3.7 -0.6,-4.2c-2.5,-1 -3.3,1.8 -2.6,8.8l0.6,6.6l-3.8,0.6c-5.8,0.9 -12.5,4 -12.5,5.7c0,2.7 -2.9,5.8 -5.9,6.5c-1.6,0.3 -3.2,1.3 -3.5,2c-0.8,2.3 -8.7,7.5 -11.2,7.5c-1.4,0 -2.5,0.8 -2.9,2c-0.5,1.6 -1.5,2 -4.6,2c-4.8,0 -5,1.2 -0.5,3.8c6.2,3.7 9.6,14.9 6,20c-1.6,2.3 -1.9,2.3 -13.5,1.6l-11.9,-0.7l0,6.8c0,3.7 -0.5,8.5 -1.1,10.6c-1.6,5.1 0.2,9.4 4.4,10.8c1.7,0.6 3.9,1.9 4.9,2.8c1.7,1.5 2.3,1.5 9.4,-0.7c8.5,-2.7 12.4,-6.2 12.4,-11.1c0,-2.3 0.7,-3.4 3.1,-4.7c5.5,-3 8.9,-6.3 8.9,-8.6c0,-3.5 3.1,-5.6 8.1,-5.6c2.4,-0.1 5.5,-0.7 6.9,-1.5c4.9,-2.8 7.1,-1.9 14,5.4c3.6,3.7 8.4,7.8 10.7,8.9c5,2.6 7.3,5.6 7.3,9.5c0,1.6 0.4,2.6 1,2.2c0.6,-0.3 1,-2.9 1,-5.6c0,-4.7 0.1,-4.9 2.1,-3.9c1.1,0.7 2.3,0.9 2.6,0.6c0.3,-0.2 -2.6,-2.5 -6.4,-4.9c-5.5,-3.6 -7.9,-5.9 -11.1,-11.1c-2.3,-3.6 -4.2,-6.9 -4.2,-7.4c0,-0.5 0.9,-1.7 1.9,-2.6c1.9,-1.7 2.2,-1.5 8.3,4.2c3.4,3.2 8.3,7.6 10.7,9.8c2.5,2.2 5.3,6.1 6.6,9.1c2.7,6 7.4,12.3 9.3,12.3c1.8,0 1.4,-1.8 -0.5,-2.3c-1.4,-0.4 -1.3,-0.5 0.3,-0.6c1.2,0 2.5,0.7 2.8,1.6c0.7,1.7 -0.9,3.3 -3.1,3.3c-0.7,0 -1.3,0.9 -1.3,2c0,2.5 0.5,2.5 4.6,-0.1c4.1,-2.5 4.2,-4.1 0.9,-8.1c-2.8,-3.3 -2.8,-5.5 -0.1,-5c0.9,0.2 1.9,-0.4 2.2,-1.3c0.5,-1.1 2.1,-1.5 5.9,-1.5c6.5,0 8.9,-1.9 8.2,-6.4c-0.9,-5.7 6,-18 11.6,-21.1c4.3,-2.3 8.1,-0.8 7.1,2.9c-0.4,1.7 0.1,2.5 2.1,3.4c2.7,1.3 5.5,1.6 5.5,0.7c0,-0.3 -0.7,-1.6 -1.6,-3c-1.5,-2.2 -1.4,-2.4 1,-4c3.2,-2.1 10.1,-3.1 11,-1.6c0.4,0.6 -0.1,2.5 -1,4.3l-1.7,3.2l7.2,6.6c3.9,3.6 7.1,7.2 7.1,8.1c-0.1,5.1 -9.7,6.5 -19.5,2.8c-3.6,-1.4 -7,-1.9 -9.3,-1.6c-5,0.7 -13.8,4 -16,6c-1,1 -2.8,1.7 -4.1,1.7c-2.9,0 -3.5,2.1 -2.5,8.3c1.3,7.5 3.6,8.4 19.4,8.2l12.2,-0.2l-0.6,4.1c-1.2,7.9 -4.9,18.7 -7.3,21.2c-1.158,1.28 -4.241,2.134 -5.1,1.9c-1.5,-0.5 -5.6,-0.7 -9.2,-0.7c-5.1,0.2 -8.8,-0.6 -17.2,-3.4c-6.2,-2 -11.6,-3.3 -12.7,-2.9c-1.1,0.3 -3,2.5 -4.3,4.8c-3.5,6.4 -3.2,6.4 -23.3,-4.1l-11,-5.8l0,-6.6c0,-3.7 -0.5,-7.2 -1,-7.7c-2.8,-2.8 -22.1,-0.7 -38,4.1c-12.1,3.6 -17.5,4.2 -17.5,1.8c0,-2.1 -2,-0.8 -3.6,2.2c-0.9,1.8 -3.9,5.4 -6.5,7.9c-4.3,4.2 -4.9,5.2 -4.9,8.9c0,5.6 -2.3,10.1 -7,13.9c-2.2,1.8 -5.8,6 -8.1,9.4c-2.3,3.4 -5.3,7.5 -6.8,9c-2.5,2.7 -2.6,3.4 -3.2,19c-0.3,8.9 -1.2,17.7 -1.9,19.5c-1,2.8 -1,3.6 0.3,5c4,4.5 13.7,19.9 13.7,21.8c0,3 5.3,9.3 11.2,13.3c4.8,3.2 5.2,3.3 11.6,2.7c3.6,-0.4 9.3,-0.9 12.6,-1.1c3.4,-0.2 9,-1.3 12.6,-2.4c9.7,-3.1 12.3,-2.8 16.8,1.7c3.4,3.5 4,3.8 7.2,3.1c2.4,-0.5 4.2,-0.3 5.8,0.7c2.1,1.4 2.2,2.1 2.2,14.7l0,13.3l4,5.5c2.3,2.9 4.4,6.5 4.7,7.9c0.3,1.4 1.6,4.3 2.9,6.5c1.5,2.7 2.5,6.4 2.9,11.5c0.6,6.7 0.4,8.4 -2.4,16.6c-1.7,5.1 -3.1,10.6 -3.1,12.3c0,1.7 1.3,6.4 3,10.5c1.6,4.1 3.6,11.6 4.5,16.8c2,11.4 4.4,18.7 9.6,29c5.9,11.7 6.1,12.5 4.2,14.4c-2,1.9 -0.9,4.1 2.9,6.3c2.2,1.3 4,1.3 12.4,0.2c13.7,-1.9 19.5,-4.2 24.2,-9.7c6.3,-7.4 10.1,-14.6 11.7,-22c1.3,-6.1 1.9,-7.3 5.7,-10.6c4.2,-3.5 4.3,-3.8 4.1,-9.1c-0.2,-3 -0.7,-6.7 -1.3,-8.3c-1.4,-3.7 0.4,-6.2 9.6,-13.1c9.5,-7.1 10.7,-9.5 10.1,-20.8c-0.2,-5 -0.9,-10 -1.5,-11.2c-0.6,-1.1 -1.9,-5.5 -2.7,-9.8c-1.5,-7.3 -1.5,-8.1 0,-12.3c2.9,-7.3 10.9,-18.3 18.4,-25c4,-3.5 8.8,-8.9 10.8,-12c3.9,-6.2 11.3,-21.5 11.3,-23.5c0,-0.7 0.9,-2.9 1.9,-5c1,-2 1.8,-3.7 1.6,-3.7c-0.2,0 -4.7,0.9 -10,2c-5.3,1.1 -10.8,2 -12,2c-2.4,0 -8.8,-4.7 -8.1,-5.9c0.2,-0.3 -2.9,-5.1 -7,-10.6c-4.1,-5.5 -7.4,-10.3 -7.4,-10.7c0,-0.4 -1.4,-2.3 -3.1,-4.2c-2.4,-2.8 -3.1,-4.7 -3.6,-9.3c-0.6,-6.7 -4.9,-17.7 -11.1,-28c-2.6,-4.3 -4.2,-8.2 -4,-9.5c0.215,-1.504 2.706,-1.242 3.4,0.1l1.1,2.2l1.4,-2.2c1.4,-2.1 1.5,-2.1 4.4,2.1c1.6,2.3 3.9,7.1 5.1,10.7c1.5,4.5 2.9,6.9 4.5,7.7c2.3,1.1 3.2,3.4 4.4,10.8c0.4,2.4 2.6,6.4 6,10.9c3,4 5.5,7.7 5.5,8.3c0.1,4.1 2.1,14 3.1,15.2c0.6,0.8 2,1.4 3.1,1.4c3.2,0 35,-16.6 40.5,-21.2c2.8,-2.4 5.2,-4.8 5.2,-5.4c0.1,-0.6 1.2,-2.1 2.6,-3.4c1.4,-1.3 2.5,-3 2.5,-3.8c0,-0.9 0.8,-2.4 1.8,-3.5c1.6,-1.9 1.6,-2 -1.7,-4.6c-5.6,-4.2 -9.1,-8.2 -9.1,-10.2c0,-2.6 -0.8,-2.4 -3.3,0.7c-2.1,2.7 -8.9,6.3 -11.9,6.4c-0.9,0 -2.1,-1.2 -2.7,-2.8c-0.6,-1.5 -3.6,-7.4 -6.6,-13.1c-5.9,-10.9 -6,-13.1 -0.9,-13.1c2.5,0 4.1,1.3 8.7,7.4c3.6,4.7 8,6.9 13.6,6.7c4,-0.1 4.9,0.3 7.2,3c2.5,3.1 2.7,3.1 16.7,4.3c13.9,1.2 14.3,1.3 17.4,4.4c1.8,1.7 5,3.8 7,4.6c4.3,1.8 5.5,3.4 3.4,4.2c-2.1,0.8 -2,3.1 0.2,4.3c2.1,1.1 3.5,0.4 5.2,-2.8c1.8,-3.5 2.7,-1.2 3.5,8.8c0.7,9 3.7,21.2 6.1,24.6c0.8,1.1 1.4,2.6 1.4,3.5c0,2 9.1,21 10.1,21c0.4,0 1.9,-2.4 3.4,-5.3c1.9,-4 2.8,-7.8 3.4,-15.1c0.4,-5.3 1.2,-10.1 1.7,-10.5c0.5,-0.5 4.1,-3.5 7.9,-6.8c3.9,-3.3 9.5,-9 12.4,-12.6c4.8,-6 5.6,-6.5 10.1,-7.1c2.6,-0.4 5.3,-1.3 6,-2.1c0.7,-0.8 1.6,-1.5 2,-1.5c0.5,0 3.3,3.6 6.4,8c5.3,7.5 5.6,8.3 5.6,14c0,5.4 0.2,6 2,6c1.2,0 3.4,-1 5.1,-2.2c3.6,-2.7 4.4,-1.9 5.4,4.9c0.3,2.5 1.3,6.3 2.1,8.5c0.8,2.4 1.4,7.9 1.4,13.4c0,8 0.4,10.1 2.4,14.1c1.4,2.7 3,6.6 3.6,8.8c2.3,7.8 11,17.2 11,11.8c0,-4.4 -3.5,-13.5 -6.9,-17.6c-9.4,-11.9 -10.2,-14.7 -6.7,-23.1c1.3,-3.2 1.9,-3.6 5.1,-3.6c4.3,0 7.5,1.5 7.5,3.5c0,0.8 1.4,3 3,4.8c1.7,1.9 3,4.4 3,5.6c0,1.1 0.4,2.1 0.9,2.1c0.6,0 3.9,-2.5 7.6,-5.6l6.5,-5.6l-0.5,-5.1c-1.2,-10.3 -1.7,-11.8 -6.1,-18.4c-7.1,-10.6 -7,-9.7 -2.3,-14.8c4.4,-4.7 5.7,-5.2 8.8,-3.3c1.5,0.9 2.2,0.8 3.4,-0.3c0.8,-0.8 4.8,-2.5 8.8,-3.8c15,-4.7 19.6,-8.5 28.2,-23.5c4.2,-7.4 4.4,-8.4 2,-10.1c-1.7,-1.2 -1.7,-1.4 0.1,-3.4c1.9,-2.1 1.9,-2.1 -0.2,-2.1c-2.5,0 -3,-2.8 -0.7,-3.6c2.2,-0.9 1.9,-2.3 -1.5,-7.4c-1.6,-2.5 -3,-5.4 -3,-6.5c0,-2.5 4,-6.9 8,-9c1.7,-0.9 3,-1.7 3,-1.9c0,-0.2 -1.9,-0.1 -4.2,0.1c-5,0.5 -11.6,-1.4 -13.2,-3.9c-1.4,-2.2 3,-7 9.5,-10.3c6,-3.1 7.6,-1.9 4.8,3.6c-2.2,4.4 -1.6,5.1 1.3,1.4c3.6,-4.6 12.8,-2.6 11.5,2.5c-0.4,1.7 0.2,3.2 2.3,5.7c2.4,2.7 3,4.3 3,7.8c0,4.9 0.6,5.3 5,3c3.8,-2 3.8,-4.2 0,-13.5l-3,-7.3l7.9,-8.6c7.8,-8.5 8,-8.6 12.1,-8.3c4.8,0.4 6.6,-0.9 13.5,-9.9c11.9,-15.4 18.1,-36.2 12.7,-42.9c-1.7,-2 -2.1,-2.1 -5.9,-1c-3.9,1.2 -4.4,1.1 -7.2,-1.3c-1.7,-1.4 -3.6,-2.7 -4.3,-2.9c-2.6,-0.9 11.8,-14.9 23.1,-22.5c5.5,-3.7 6.7,-3.9 15.3,-2.7c2.7,0.3 6.2,0.1 8.2,-0.6c2.9,-0.9 4.9,-0.8 10.5,0.6c6.7,1.6 10.8,1.4 9.7,-0.4c-1.7,-2.9 12.4,-13.2 18,-13.2c3.9,0 4.9,1.2 3.2,3.9c-0.7,1.1 -1,2.3 -0.6,2.6c1.1,1.1 9.6,-5 10.6,-7.8c1,-2.8 5.2,-4 5.2,-1.5c0,2.3 -3.8,7.6 -6.7,9.4c-1.5,1 -6.2,5.1 -10.4,9.1c-4.2,4 -8.1,7.3 -8.7,7.3c-1.9,0 -5,6.5 -5.7,12c-0.6,4.7 1.4,19.2 2.8,20.7c0.6,0.6 10.7,-9.9 10.2,-10.6c-0.8,-1.5 3.5,-7.1 5.5,-7.1c1.5,0 2,-0.7 2,-2.6c0,-3.3 1.7,-6.4 3.5,-6.4c1.7,0 1.9,-1.1 0.6,-2.5c-0.5,-0.6 -1.2,-2.8 -1.5,-5c-0.7,-4.4 1.9,-10.1 5.2,-11.1c0.9,-0.3 3.1,-1.2 4.7,-2c4.1,-1.9 14,-3 14.9,-1.5c1.2,1.8 4.3,1.3 8.3,-1.5c8,-5.4 13.7,-7.7 19.8,-8c4.9,-0.2 6,-0.6 6.3,-2.1c0.3,-2.6 -3.4,-8.2 -6.2,-9.2c-2.5,-1 -4.1,-3.7 -2.6,-4.6c0.5,-0.3 2.8,-0.1 5,0.5c4.8,1.3 8,0 8,-3.3c0,-1.2 0.4,-2.8 0.9,-3.6c1,-1.6 3.1,-0.6 3.1,1.4c0,2.1 1.6,2.6 4.4,1.4c2.1,-1 2.9,-0.8 5.3,1c7.1,5.5 13.5,8.8 11.8,6.1c-1.1,-1.8 2.3,-5.9 6,-7.4c4.5,-1.9 4.4,-3.1 -0.2,-5.5c-6.9,-3.4 -8.2,-3.5 -9.5,-0.7c-1.5,3.4 -3.5,3.3 -4.3,-0.3c-1.7,-7.8 -15.7,-14.6 -36,-17.5c-5.5,-0.8 -11.4,-1.8 -13,-2.1c-3.1,-0.7 -3.1,-0.7 -2.7,3.4c0.5,4.9 -0.4,5.1 -8.8,2.1c-3.8,-1.3 -8.3,-1.9 -14.5,-2c-11.6,0 -13.3,-0.5 -14.9,-4.5c-1.7,-4 -4.3,-4.6 -17.3,-3.8c-8.4,0.5 -10,0.3 -11.2,-1.1c-0.7,-0.9 -2.2,-1.6 -3.3,-1.6c-1.3,0 -2.4,-1.1 -3.1,-2.9c-1.5,-4 -3.6,-4.3 -10.1,-1.3c-6.1,2.7 -7.5,2.6 -5.5,-0.7c0.7,-1.1 1.1,-2.2 0.9,-2.4c-1.2,-1.1 -18.2,-1.3 -18.5,-0.3c-0.2,0.6 -0.6,2.3 -0.9,3.8c-0.8,3.7 -6.8,5.5 -11.7,3.4c-2.4,-1 -4,-1.1 -5.8,-0.4c-1.4,0.5 -4,0.7 -5.8,0.3c-2.9,-0.5 -3.5,-0.2 -4.5,2c-1.5,3.3 -3.6,3.2 -8.4,-0.4c-8.6,-6.3 -11.3,-11.1 -6.3,-11.1c2.5,0 2.4,-1.5 -0.3,-3.4c-2.8,-2 -10.5,-2.1 -15.5,-0.2c-2.1,0.8 -5.2,1.7 -6.9,1.9c-3.7,0.7 -10.4,-0.7 -11.5,-2.4c-0.9,-1.6 -11.8,-1.5 -14.8,0c-1.9,1.1 -2.3,0.8 -4.3,-3.4c-2.3,-4.7 -4.5,-5.6 -9.3,-3.5c-1.8,0.8 -1.8,0.9 -0.2,0.9c2.3,0.1 8.1,3.1 7.3,3.8c-0.3,0.3 -1.1,0.1 -1.8,-0.5c-1.2,-0.9 -4.9,-1.6 -7.2,-1.3c-0.4,0.1 0.2,0.9 1.4,1.9l2.3,1.8l-4.6,1.8c-4.7,1.8 -12.2,2.4 -13.5,1.1c-0.4,-0.4 0.2,-1.3 1.3,-2.1c7.3,-5.2 13.3,-8.6 16.7,-9.3c4.9,-1.1 8.2,-3.9 6.7,-5.7c-0.7,-0.8 -0.7,-1.4 0.1,-1.9c1.8,-1.1 1.1,-2.5 -1.4,-2.5c-1.4,0 -2.8,-0.5 -3.2,-1.1c-0.4,-0.8 -3.1,-0.9 -8.6,-0.4c-6.2,0.5 -8.8,0.3 -12.3,-1.1c-4.7,-1.7 -5.5,-2.8 -3,-3.8c2.9,-1.1 1.5,-2.6 -2.4,-2.6c-3.1,0 -4.4,0.6 -6.5,3.1Zm-248.3,100.1c2.2,2.6 2.2,3.8 -0.2,3.8c-1.1,0 -2.6,0.3 -3.5,0.6c-1.9,0.7 -4.2,-3.6 -3.2,-6.1c0.8,-2.1 4.4,-1.2 6.9,1.7Zm72.5,78c0.3,2.4 0,2.8 -2.2,2.8c-2.3,0 -3.8,1.2 -4.2,3.5c-0.1,0.5 -0.5,1.7 -0.9,2.6c-0.4,1 0.4,2.8 1.9,4.7c1.5,1.6 2.6,3.8 2.6,4.8c0,1.1 0.4,2.5 0.9,3.3c0.8,1.2 1.2,1.2 2.5,0.2c1.3,-1.1 1.9,-1.1 3.1,-0.1c2.2,1.8 1.9,2.4 -1.7,3.8c-3.1,1.1 -3.1,1.2 -1.3,3.2c2.7,3 3.3,11.9 0.9,13.7c-3.8,2.8 -12.6,0.4 -13.9,-3.7c-0.3,-1.1 0.1,-4.3 1.1,-7.3l1.6,-5.3l-2.6,-3.8c-2.7,-4 -5.6,-12.3 -5.6,-16.1c0,-4.2 9,-9.8 15,-9.2c1.9,0.1 2.6,0.8 2.8,2.9Zm27.2,4.1c0,2 -0.8,4.1 -1.9,5.1c-1.6,1.5 -1.9,1.5 -3.1,0.1c-1.1,-1.3 -1,-2.2 0.3,-5c2.2,-4.6 4.7,-4.6 4.7,-0.2Z" style="fill:#313131;fill-rule:nonzero;"/>
    <path d="M284.7,49.6c-0.8,0.8 0.1,2.4 1.4,2.4c0.5,0 0.9,-0.7 0.9,-1.5c0,-1.5 -1.2,-2 -2.3,-0.9Z" style="fill:#313131;fill-rule:nonzero;"/>
    <path d="M947,50.6c0,0.9 0.5,1.4 1.2,1.2c1.8,-0.6 2.1,-2.8 0.4,-2.8c-0.9,0 -1.6,0.7 -1.6,1.6Z" style="fill:#313131;fill-rule:nonzero;"/>
    <path d="M185.7,52.4c-3.2,1.1 -7.4,3.4 -9.5,5.1l-3.6,2.9l3.4,0.8c3.2,0.7 3.8,0.4 6.3,-2.7c2.3,-2.7 3.4,-3.4 5.2,-2.9c1.9,0.5 2.7,0 4,-2.5c1.8,-3.6 1.9,-3.5 -5.8,-0.7Z" style="fill:#313131;fill-rule:nonzero;"/>
    <path d="M921.6,50.7c-1.1,1.1 -0.6,2.3 0.9,2.3c0.8,0 1.5,-0.4 1.5,-0.9c0,-1.3 -1.6,-2.2 -2.4,-1.4Z" style="fill:#313131;fill-rule:nonzero;"/>
    <path d="M986.6,50.7c-1.1,1.1 -0.6,2.3 0.9,2.3c0.8,0 1.5,-0.4 1.5,-0.9c0,-1.3 -1.6,-2.2 -2.4,-1.4Z" style="fill:#313131;fill-rule:nonzero;"/>
    <path d="M200.2,53.2c0.6,1.8 2.8,2.1 2.8,0.4c0,-0.9 -0.7,-1.6 -1.6,-1.6c-0.9,0 -1.4,0.5 -1.2,1.2Z" style="fill:#313131;fill-rule:nonzero;"/>
    <path d="M349.5,52.9c-0.7,1.2 1.2,2.4 2.5,1.6c1.1,-0.7 0.4,-2.5 -1,-2.5c-0.5,0 -1.1,0.4 -1.5,0.9Z" style="fill:#313131;fill-rule:nonzero;"/>
    <path d="M1134.6,53.7c-1.1,1.1 -0.6,2.3 0.9,2.3c0.8,0 1.5,-0.4 1.5,-0.9c0,-1.3 -1.6,-2.2 -2.4,-1.4Z" style="fill:#313131;fill-rule:nonzero;"/>
    <path d="M263.5,55c-0.7,1.1 2.4,2.5 7.9,3.6c4,0.7 6.6,2.7 6.6,4.9c0,1.7 3.1,3.5 5.9,3.5c1.1,0 4,0.7 6.5,1.5c3.6,1.2 6.8,1.4 17.5,0.7c7.2,-0.5 13.2,-1 13.4,-1.3c0.2,-0.2 0.7,-1.7 1.1,-3.2c0.6,-2.6 0.5,-2.7 -1.3,-1.7c-1.1,0.5 -9.1,1.1 -17.8,1.3c-13.8,0.2 -16.2,0 -18.6,-1.6c-1.5,-0.9 -2.7,-2.4 -2.7,-3.2c0,-1.4 -3.2,-2.5 -11,-4c-1.9,-0.4 -4.2,-0.9 -5.2,-1.1c-0.9,-0.3 -1.9,0 -2.3,0.6Z" style="fill:#313131;fill-rule:nonzero;"/>
    <path d="M841,57.1c-3,1.1 -8.2,2.2 -11.4,2.4c-3.3,0.3 -8.7,1.3 -12,2.4c-3.4,1.1 -7.4,2.1 -9.1,2.3c-2.4,0.2 -2.9,0.7 -2.7,2.3c0.1,1.3 -1,3.2 -2.8,5c-3.4,3.3 -3.8,5.1 -1.2,5.8c1.1,0.3 0.7,0.5 -1,0.6c-1.8,0.1 -3.7,1.3 -5.7,3.8c-3.7,4.5 -3.8,5.1 -0.8,5.5c1.2,0.2 2.6,1.3 3.2,2.5c1,2.3 3.2,3.3 7.8,3.3l2.9,0l-2.6,-3.1c-4.1,-4.8 -3.4,-7.1 4.8,-15.7c6.3,-6.7 8.9,-8.2 19,-10.7c11.3,-2.9 20.6,-6.3 20.6,-7.6c0,-1.4 -2.9,-1 -9,1.2Z" style="fill:#313131;fill-rule:nonzero;"/>
    <path d="M950,56.6c0,0.9 0.5,1.4 1.2,1.2c1.8,-0.6 2.1,-2.8 0.4,-2.8c-0.9,0 -1.6,0.7 -1.6,1.6Z" style="fill:#313131;fill-rule:nonzero;"/>
    <path d="M218.8,59.1c-0.5,4.8 -2.8,5.8 -8.5,3.5c-12.6,-4.8 -17.9,-4.5 -15.4,1c0.9,2 1.5,2.4 2.3,1.6c1.6,-1.6 6,-1.5 8.3,0.2c1.8,1.3 1.7,1.4 -1.1,2.9l-2.9,1.6l3,0c4.4,0.1 23.8,-5.4 24.3,-6.7c0.2,-0.7 -0.7,-1.2 -2.2,-1.2c-1.8,0 -3,-0.9 -4.1,-3c-2,-3.9 -3.3,-3.8 -3.7,0.1Z" style="fill:#313131;fill-rule:nonzero;"/>
    <path d="M236.7,56.6c-0.8,0.8 0.1,2.4 1.4,2.4c0.5,0 0.9,-0.7 0.9,-1.5c0,-1.5 -1.2,-2 -2.3,-0.9Z" style="fill:#313131;fill-rule:nonzero;"/>
    <path d="M245.2,56.9c-1.9,1.2 0.2,4.6 4.6,7.3c2.6,1.6 3.5,1.8 4.7,0.8c4.7,-3.9 -4,-11.5 -9.3,-8.1Zm4.8,2.6c0.7,0.9 1,1.8 0.7,2.1c-1,1.1 -3.7,-0.5 -3.7,-2.1c0,-1.9 1.4,-1.9 3,0Z" style="fill:#313131;fill-rule:nonzero;"/>
    <path d="M1146,57.5c0,0.9 0.5,1.5 1.1,1.3c0.6,-0.2 1.1,-0.8 1.1,-1.3c0,-0.5 -0.5,-1.1 -1.1,-1.3c-0.6,-0.2 -1.1,0.4 -1.1,1.3Z" style="fill:#313131;fill-rule:nonzero;"/>
    <path d="M1087.5,60c-0.3,0.5 -0.2,1.6 0.2,2.4c1.1,2 3.8,0.3 3,-1.8c-0.7,-1.8 -2.3,-2.1 -3.2,-0.6Z" style="fill:#313131;fill-rule:nonzero;"/>
    <path d="M1096.4,60.4c-0.3,0.8 -0.4,2.5 -0.2,3.8c0.3,2.4 0,2.3 9.3,1.6c1.1,-0.1 3.4,0.2 5,0.7c2.5,0.6 2.8,0.5 1.8,-0.6c-0.7,-0.7 -1.3,-2.3 -1.3,-3.6c0,-2.6 -0.3,-2.7 -2.8,-1.2c-1.4,0.9 -2.5,0.8 -5,-0.5c-3.8,-2 -6.1,-2 -6.8,-0.2Z" style="fill:#313131;fill-rule:nonzero;"/>
    <path d="M1114,60.8c0,0.5 0.7,1.5 1.5,2.2c1.7,1.4 5.8,0.4 5.2,-1.3c-0.4,-1.4 -6.7,-2.2 -6.7,-0.9Z" style="fill:#313131;fill-rule:nonzero;"/>
    <path d="M184.2,62.1c0.2,0.6 0.8,1 1.3,1c0.5,0 1.1,-0.4 1.3,-1c0.2,-0.6 -0.4,-1.1 -1.3,-1.1c-0.9,0 -1.5,0.5 -1.3,1.1Z" style="fill:#313131;fill-rule:nonzero;"/>
    <path d="M240,63c1.1,2.1 2.2,2.5 3.3,1.3c0.9,-0.9 -1.2,-3.3 -3,-3.3c-1.1,0 -1.1,0.4 -0.3,2Z" style="fill:#313131;fill-rule:nonzero;"/>
    <path d="M260.2,61.9c0.4,1.3 1.8,1.6 1.9,0.4c0,-0.4 -0.5,-0.9 -1.1,-1.2c-0.7,-0.2 -1.1,0.2 -0.8,0.8Z" style="fill:#313131;fill-rule:nonzero;"/>
    <path d="M541,63.5c0,0.9 0.5,1.5 1.1,1.3c0.6,-0.2 1.1,-0.8 1.1,-1.3c0,-0.5 -0.5,-1.1 -1.1,-1.3c-0.6,-0.2 -1.1,0.4 -1.1,1.3Z" style="fill:#313131;fill-rule:nonzero;"/>
    <path d="M233.7,63.7c-1.2,1.1 -0.8,2.3 0.8,2.3c0.8,0 1.5,-0.7 1.5,-1.5c0,-1.6 -1.2,-2 -2.3,-0.8Z" style="fill:#313131;fill-rule:nonzero;"/>
    <path d="M266.3,63.7c-2,0.7 -1.5,3.1 0.7,3.8c2.3,0.7 4,-0.1 4,-2c0,-1 -2.5,-2.8 -3.3,-2.4c-0.1,0 -0.8,0.3 -1.4,0.6Z" style="fill:#313131;fill-rule:nonzero;"/>
    <path d="M896.5,64c-0.4,0.6 -0.3,1.6 0.3,2.2c0.6,0.6 1.2,0.6 1.7,-0.2c0.4,-0.6 0.3,-1.6 -0.3,-2.2c-0.6,-0.6 -1.2,-0.6 -1.7,0.2Z" style="fill:#313131;fill-rule:nonzero;"/>
    <path d="M1128.5,63.8c0.6,0.5 2.8,1.3 5,1.7c2.6,0.4 3.6,0.3 3,-0.3c-0.5,-0.5 -2.8,-1.3 -5,-1.7c-2.6,-0.4 -3.6,-0.3 -3,0.3Z" style="fill:#313131;fill-rule:nonzero;"/>
    <path d="M545.7,65.6c-0.8,0.8 0.1,2.4 1.4,2.4c0.5,0 0.9,-0.7 0.9,-1.5c0,-1.5 -1.2,-2 -2.3,-0.9Z" style="fill:#313131;fill-rule:nonzero;"/>
    <path d="M1086.6,69.7c-1.1,1.1 -0.6,2.3 0.9,2.3c0.8,0 1.5,-0.4 1.5,-0.9c0,-1.3 -1.6,-2.2 -2.4,-1.4Z" style="fill:#313131;fill-rule:nonzero;"/>
    <path d="M173.5,70.7c-3.4,0.9 -4.5,2.4 -4.5,6.3c0,3 -0.6,4.3 -2.7,5.9c-1.9,1.4 -2.3,2 -1.2,2.1c0.9,0 2.4,0.9 3.4,2c1,1.1 2.8,2 4,2c1.2,0 3.4,-0.9 4.8,-2c1.4,-1.1 2.9,-2 3.5,-2c0.5,0 1.7,-0.9 2.8,-2.1c1,-1.2 3.7,-3 5.9,-4.1l4,-1.9l-2.4,2.1c-2.5,2.2 -2.1,2.6 1,1c2.1,-1.2 2.6,-5.5 0.7,-6.7c-0.7,-0.4 -4,-1.1 -7.3,-1.5c-3.3,-0.3 -6.9,-0.9 -8,-1.1c-1.1,-0.3 -2.9,-0.3 -4,0Z" style="fill:#313131;fill-rule:nonzero;"/>
    <path d="M1106.6,72.5c-0.4,1.4 -0.4,3 -0.1,3.5c0.8,1.3 8.5,1.3 8.5,0c0,-0.6 -0.7,-1 -1.5,-1c-0.9,0 -2.6,-1.1 -3.9,-2.5l-2.4,-2.5l-0.6,2.5Z" style="fill:#313131;fill-rule:nonzero;"/>
    <path d="M273.8,72.7c-4,0.6 -5.1,2.5 -4.1,7.4c1,5.2 2.7,6 4.1,1.9c0.6,-1.6 1.5,-3 2.1,-3c1.6,0 7.1,-5.1 6.5,-6.1c-0.5,-0.9 -3.5,-1 -8.6,-0.2Z" style="fill:#313131;fill-rule:nonzero;"/>
    <path d="M855.5,72.9c-0.7,1.2 1.2,2.4 2.5,1.6c1.1,-0.7 0.4,-2.5 -1,-2.5c-0.5,0 -1.1,0.4 -1.5,0.9Z" style="fill:#313131;fill-rule:nonzero;"/>
    <path d="M253.3,74.9c-3.3,1.3 -4,2 -3.3,3.1c1.7,2.7 1.1,3.2 -2.7,2.5l-3.6,-0.7l2.9,2.5c6.3,5.3 9.3,6.6 13,5.4c3.8,-1.1 4.3,-3 1.8,-6.5c-1,-1.5 -1.3,-3.2 -0.9,-5.2c0.8,-3.6 -0.6,-3.8 -7.2,-1.1Z" style="fill:#313131;fill-rule:nonzero;"/>
    <path d="M230.4,75.5c-0.4,0.9 -1.9,2.2 -3.5,3.1c-1.9,0.9 -2.9,2.2 -2.9,3.7c0,4.6 -1.6,5.3 -4.9,1.9c-3.9,-3.9 -7.2,-5 -8.5,-2.9c-0.8,1.2 -1.5,1.3 -3.3,0.4c-1.8,-0.8 -2.7,-0.7 -4.1,0.6c-2.2,2 -3.2,1.3 -3.2,-2.4l0,-2.8l-3.7,2c-7.6,4.1 -8.5,5.1 -7.2,8.7c0.6,1.7 1.6,3.3 2.2,3.3c0.7,0.1 4.4,0.2 8.4,0.3c4.4,0 7.7,0.6 8.5,1.4c2.1,2.1 -0.9,3.2 -8.9,3.2c-7.4,0 -9.6,1.2 -4.5,2.5c1.5,0.3 4.4,1.8 6.4,3.2c3.3,2.2 4.4,2.5 8.7,1.9c2.7,-0.4 7.5,-1.5 10.7,-2.6c7.3,-2.5 9.6,-2.5 16.7,0.4c3.1,1.3 5.7,2 5.7,1.5c0,-0.4 -0.4,-1.1 -1,-1.4c-1.8,-1.1 -1,-3.4 1.6,-4.8l2.7,-1.4l-4.2,-0.7c-5,-0.8 -7.3,-2.9 -9.6,-9.1c-1.5,-3.8 -1.6,-5.3 -0.8,-7.6c0.7,-1.7 0.8,-3.1 0.2,-3.5c-0.5,-0.3 -1.2,0.2 -1.5,1.1Z" style="fill:#313131;fill-rule:nonzero;"/>
    <path d="M874.7,74.6c-0.8,0.8 0.1,2.4 1.4,2.4c0.5,0 0.9,-0.7 0.9,-1.5c0,-1.5 -1.2,-2 -2.3,-0.9Z" style="fill:#313131;fill-rule:nonzero;"/>
    <path d="M320,76.8c0,2.9 1,3.2 6.9,2.5c4.6,-0.5 5.1,-0.8 3.8,-2.1c-0.8,-0.8 -3.6,-1.7 -6.1,-1.9c-4.2,-0.5 -4.6,-0.4 -4.6,1.5Z" style="fill:#313131;fill-rule:nonzero;"/>
    <path d="M290.1,79.8c-3.7,3.5 -4,4.1 -3.2,6.9c1.1,3.9 2.6,6.7 4.4,8.1c0.8,0.7 8.1,1.6 17.3,2.1c13.4,0.8 17.3,1.4 24.7,3.9c10.2,3.4 11.3,4.2 9.8,6.9c-0.9,1.8 -0.7,2 1.4,1.6c2,-0.4 2.5,0 3.6,3.6c1.1,3.7 1.5,4.1 4.5,4.1c3.9,0 5,1.3 2.8,3.4c-1.9,1.9 -2.4,1.9 -4.8,0.1c-2.6,-2 -3.9,-1.9 -6.7,0.4c-1.9,1.6 -2.2,2.2 -1.1,3.2c2.2,2.3 1.3,2.9 -4.4,2.9c-6.2,0 -9.4,1.3 -9.4,3.7c0,1.3 0.9,1.5 5.5,0.9c6,-0.7 11.2,0.9 15,4.4c1.1,1 3.3,2.3 4.8,2.9c1.6,0.6 2.6,1.5 2.3,2c-0.3,0.5 1.1,1.1 3.2,1.5c2,0.3 6.1,1.7 9,3c5,2.4 6.8,2.2 3.7,-0.4c-2,-1.7 -1.9,-2.7 0.5,-3.5c3.8,-1.2 2.5,-5.6 -3.5,-12.2c-3,-3.4 -5.5,-6.6 -5.5,-7.2c0,-0.6 1.1,-1.8 2.5,-2.7c2.8,-1.8 2.5,-1.9 9.9,4c3,2.3 3.9,2.6 5.1,1.6c0.8,-0.7 1.5,-1.8 1.5,-2.5c0,-0.7 1,-2 2.3,-2.8l2.2,-1.6l-2.5,-2c-1.4,-1.1 -3.1,-2.1 -3.8,-2.1c-0.8,0 -2.7,-0.9 -4.2,-2c-1.6,-1.1 -4.3,-2.3 -6.2,-2.6c-3.5,-0.7 -6.8,-3 -6.8,-4.7c0,-0.6 0.7,-1.8 1.6,-2.8c1.4,-1.5 1.3,-1.9 -1.4,-3.8c-1.6,-1.1 -5.3,-2.6 -8.1,-3.2c-2.8,-0.6 -5.1,-1.3 -5.1,-1.7c0,-0.3 0.7,-1.4 1.7,-2.4c1.8,-2 0.4,-2.5 -2.8,-0.7c-2.3,1.2 -8.9,-0.8 -8.9,-2.7c0,-2.1 -4.2,-4.4 -8.1,-4.4c-2.7,0 -4.1,0.6 -5.1,2.2c-1.4,2.1 -1.8,2.2 -5,1c-1.9,-0.6 -4.1,-1.2 -5,-1.2c-1.9,0 -2.8,-2 -2.8,-6.1c0,-2.5 -0.4,-2.9 -2.8,-2.9c-5.9,0 -9.6,6.3 -7.2,12.5c0.8,2 0.8,3.1 0,3.9c-2,1.9 -5,-3 -4.8,-7.8c0.1,-3.6 0.2,-3.7 0.5,-0.9c0.5,3.9 2.3,4.4 2.3,0.7c0,-2.8 -1.6,-6.5 -3.4,-7.6c-2.4,-1.7 -5.7,-0.6 -9.5,3Zm76.4,57.6c1.9,0.8 3.5,2 3.5,2.5c0,1.5 -0.5,1.4 -5,-0.9c-6.1,-3.1 -4.9,-4.2 1.5,-1.6Z" style="fill:#313131;fill-rule:nonzero;"/>
    <path d="M519,79.4c2.8,1.7 6,2.2 4.5,0.7c-0.6,-0.5 -2.3,-1.2 -4,-1.6l-3,-0.6l2.5,1.5Z" style="fill:#313131;fill-rule:nonzero;"/>
    <path d="M1259,89.5c0,0.9 0.5,1.5 1.1,1.3c0.6,-0.2 1.1,-0.8 1.1,-1.3c0,-0.5 -0.5,-1.1 -1.1,-1.3c-0.6,-0.2 -1.1,0.4 -1.1,1.3Z" style="fill:#313131;fill-rule:nonzero;"/>
    <path d="M266.6,91.2c-2.9,4.1 -1.4,7.8 3.1,7.8c2.9,0 3.1,3.2 0.3,7.7c-2.1,3.5 -3.8,4 -7.2,2.2c-1.6,-0.9 -3.4,-0.7 -7.8,0.6c-8.4,2.5 -17.6,1.8 -22.3,-1.8c-3.7,-2.8 -9.7,-3.6 -12.7,-1.7c-1.3,0.9 -1.3,1.1 0,2c0.8,0.5 2.1,1 2.9,1c1.1,0 1.1,-0.3 0,-1.7c-1.2,-1.5 -1.2,-1.6 0.4,-1c1,0.4 2.1,0.7 2.3,0.7c1.4,0 0,3 -1.6,3.5c-1.1,0.3 -2,0.9 -2.1,1.3c-0.4,3.8 -0.9,6.5 -1.3,7c-0.3,0.3 -2.3,-1.3 -4.4,-3.6l-3.9,-4.2l-7.9,0c-9.6,0 -11.7,-0.9 -8.9,-4c1.6,-1.8 1.7,-2.3 0.5,-3.1c-0.8,-0.5 -3.2,-0.7 -5.4,-0.4c-2.8,0.4 -5.6,-0.2 -10.4,-2.1c-5.2,-2.1 -7.7,-2.5 -12.1,-2.2c-3.6,0.3 -7.1,0 -9.7,-1l-4,-1.5l-9.5,5.2c-9.3,5 -12.9,6.1 -12.9,4.1c0,-0.5 2.4,-2.5 5.2,-4.5c5.8,-3.9 5,-4.7 -1.4,-1.4c-2.4,1.2 -5,1.8 -6.3,1.5c-2.2,-0.6 -2.3,-0.5 -1,2.2c2.2,4.6 2.8,10.2 1.2,10.2c-2,0 -3.6,-2.1 -4.3,-5.8c-0.6,-2.8 -1.2,-3.2 -9,-5.6c-10.4,-3.3 -15.8,-4.5 -25.4,-5.7c-4.1,-0.5 -9.6,-1.4 -12.1,-2c-2.5,-0.6 -5.8,-0.7 -7.3,-0.3c-1.6,0.4 -3.2,0.1 -4.1,-0.6c-3.6,-3 -17.6,-4.5 -21.7,-2.4c-1.6,0.8 -2.8,1.1 -2.8,0.8c0,-0.4 -0.8,0 -1.7,0.8c-1,0.9 -3.4,2.1 -5.4,2.7c-2,0.6 -4.9,2.5 -6.4,4.1c-1.6,1.7 -3.5,3 -4.2,3c-0.8,0 -3,0.7 -5.1,1.6l-3.7,1.5l4,3.6c2.2,1.9 6.4,4.6 9.3,6c5.5,2.6 6.5,4.5 3.1,6.3c-1.5,0.9 -3.1,0.8 -6.5,-0.4c-4,-1.3 -4.9,-1.3 -8.9,0.2c-4.9,1.8 -5.6,2.7 -2.5,3.7c1.1,0.3 2,1.2 2,1.9c0,3.9 10.3,5.4 15.1,2.3c2.9,-1.9 3.9,-1.4 3.9,2.1c0,3 -5.4,8.2 -8.5,8.2c-2.2,0 -7.5,5 -7.5,7.1c0,4 5.7,9.9 9.6,9.9c1.1,0 2.9,0.8 3.8,1.9c2.2,2.4 9.7,4.5 13.1,3.7c2.3,-0.6 2.5,-0.4 2.5,2.3c0,4.4 -4.6,9 -12.9,13c-6.9,3.4 -9.9,6.1 -4.3,4c12,-4.5 27.7,-15.9 30.8,-22.4c3.8,-7.9 6,-10.5 9,-10.5c2.9,0 2.9,0 0.3,4.4c-2.2,3.8 -1.9,5.7 0.9,4.9c2.9,-0.7 5.2,-3 5.7,-5.4c0.8,-4.1 4.6,-5.1 7.9,-2c2.3,2.1 10.4,5.1 13.8,5.1c1.2,0 6.8,1.6 12.6,3.6c5.7,1.9 11,3.3 11.8,3c1.6,-0.6 3.4,1.1 6.7,6.4c1.3,1.9 4,4.5 6.2,5.7c4.5,2.5 6.6,6 6.8,11.5c0.2,2.9 0.8,4.4 2.7,5.8c2.2,1.7 2.3,2.2 1.3,3.9c-1.1,1.7 -1,1.9 0.1,1.5c0.8,-0.3 2.4,-0.1 3.5,0.6c1.8,0.9 1.9,1.4 1,3.2c-1.2,2.3 0.1,3.8 3.5,3.8c2.5,0 15.6,13.3 15.6,15.8c0,2.7 -2.3,4.5 -3.8,3c-0.6,-0.6 -1.5,-0.8 -1.9,-0.4c-1.3,1.3 -1.5,33 -0.3,37.6c0.6,2.3 2.4,5.4 3.9,6.9c1.6,1.4 3.1,3.7 3.4,5.2c0.9,3.6 5.9,10.7 9.1,12.8c1.5,1 2.7,2.2 2.6,2.7c-0.1,0.5 0.9,1.1 2.2,1.4c1.7,0.4 3.1,2.4 5.3,7.5c1.7,3.9 4,8.6 5.3,10.6c1.2,2 1.9,4.4 1.6,5.3c-0.4,1 0.6,2.9 2.5,5.2c1.7,1.9 4.1,5.5 5.2,8c2.1,4.3 6.4,8.4 9,8.4c0.7,0 0.1,-1.3 -1.4,-2.8c-1.5,-1.5 -2.7,-3.2 -2.7,-3.6c0,-0.5 -1.7,-3.6 -3.8,-7c-2.1,-3.4 -5.3,-9.4 -7.1,-13.4c-2.6,-5.8 -3,-7.6 -2.1,-8.7c1.6,-1.9 4.7,-0.3 6,3.1c1.1,2.8 11.2,18.2 19.6,29.7c4.4,6.1 5.7,8.6 5.8,11.9c0.3,5.2 3.3,7.9 17.1,15c8.5,4.4 10.9,5.2 16,5.4c5.2,0.1 6.9,0.7 13.4,4.7c4.1,2.6 9.5,5.3 12.1,6.2c6.5,2.2 12,8.3 12,13.5c0,1.6 0.4,1.9 2.3,1.5c1.8,-0.5 2.6,-0.1 3.4,1.8c0.9,1.9 2.7,3 6.8,4.2c5.3,1.5 5.8,1.5 7.5,0c2.8,-2.6 5.3,-1.4 7.8,3.5c4,8 2.8,16.3 -3.5,24.7c-3.1,4 -6.3,12.4 -6.3,16.3c0,1.7 0.7,3.3 1.8,3.9c1.6,1 1.5,1.3 -1.1,3.6l-2.7,2.4l3.9,8.8c2.1,4.8 5,11.9 6.4,15.8c6.9,19.1 6.2,17.9 15,24.8c4.5,3.6 9.2,7.6 10.5,8.9l2.3,2.5l-1.6,21.9c-3,42 -3,42.5 -6.4,50.2c-3.2,7.2 -4.6,16.3 -4.2,27.2c0.7,19 0.5,22.8 -0.9,24.5c-1.3,1.6 -1.5,1.6 -2.7,-0.2c-1.2,-1.5 -1.5,-1.6 -2.3,-0.3c-1.4,2.2 -1.2,2.8 1,3.5c2.2,0.7 7,6.5 7,8.3c0,0.7 -0.9,1.2 -1.9,1.2c-1.7,0 -2,0.9 -2.3,6.7c-0.2,3.8 -0.8,7.6 -1.2,8.5c-0.7,1.5 -0.3,1.8 1.7,1.8c3.1,0 9,4.7 8.3,6.6c-1.1,2.8 1.3,1.3 3.4,-2.1c1.2,-1.9 2.5,-3.5 3,-3.5c0.4,0 1,-1.4 1.4,-3.1c0.3,-1.7 1.7,-4.4 3.1,-6.1c1.4,-1.6 2.5,-3.4 2.5,-4c0,-0.5 1.7,-3 3.8,-5.5c2.6,-3.3 3.3,-4.8 2.3,-5.1c-5.6,-1.9 -6.9,-10.6 -1.9,-13c2,-0.9 2.8,-2.2 3.3,-5.2c0.4,-2.5 1.4,-4.4 2.7,-5.1c1.8,-1 1.8,-1.2 0.4,-3.4c-2.4,-3.7 -2.1,-6.5 0.8,-6.5c4,0 5.6,-1.1 7.7,-5.1c1.3,-2.7 2.8,-4 4.7,-4.4c13.1,-2.8 15.2,-4 15.2,-8.5c0,-1.5 -1.4,-4.6 -3.1,-6.9c-1.7,-2.4 -2.8,-4.5 -2.5,-4.8c0.3,-0.4 2.3,0.2 4.5,1.1c8.3,3.8 14.5,-1.5 24.1,-20.3c3.8,-7.4 4.2,-8.9 3.7,-13.2c-0.6,-4.5 -0.4,-5 2.9,-7.8c1.9,-1.7 5.2,-4 7.2,-5c2.1,-1.1 4.4,-2.6 5.1,-3.4c0.7,-0.9 3.1,-1.8 5.4,-2.2c6.6,-1.1 8.3,-2.7 11.7,-11.7c2.8,-7 3.3,-10 3.8,-19.6l0.5,-11.2l4.7,-5.9c6.5,-8.1 9.2,-14 8.8,-19.3c-0.3,-3.9 -0.8,-4.6 -7,-9.4c-6.1,-4.7 -7.3,-5.2 -13.5,-5.9c-7.7,-0.8 -9.2,-1.4 -14.7,-6.2c-2.2,-1.8 -4.7,-3.3 -5.7,-3.3c-0.9,0 -3.6,1.6 -5.9,3.5c-4.6,3.9 -5.7,4.1 -8.5,2.2c-1.7,-1.3 -1.5,-1.5 2.1,-3.3c3.9,-1.9 5.9,-5.4 3.1,-5.4c-0.8,0 -3.4,1.6 -5.8,3.5c-2.4,1.9 -5,3.5 -5.7,3.5c-1.8,0 0.9,-4.9 5.3,-9.5l3.5,-3.7l-2,-2.6c-1.1,-1.3 -2,-3.5 -2,-4.7c0,-4.8 -8.9,-11.5 -15.4,-11.5c-1.5,0 -3.7,-0.5 -4.9,-1.1c-3.3,-1.7 -15.7,-14.1 -16.8,-16.7c-0.8,-2.2 -1.4,-2.4 -6.7,-2.1c-5.9,0.3 -14.7,-1.9 -19,-4.7c-2.3,-1.5 -2.5,-1.4 -4,0.8c-1,1.2 -1.9,3.6 -2.2,5.2c-0.7,3.9 -2.7,4.4 -4.2,1.2c-0.9,-2.2 -0.8,-3.3 0.5,-6.1c2,-4.1 1.6,-4.3 -2.6,-1.1c-1.8,1.4 -4.4,2.9 -5.8,3.5c-1.9,0.7 -3.2,2.4 -4.4,5.5c-1.9,4.8 -3.4,5.6 -5.5,3c-2.5,-2.9 -4.7,-3.4 -10,-2.3c-4.8,1 -5.3,0.9 -7.7,-1.3c-4.1,-3.8 -5.1,-7.3 -4.6,-16c0.7,-9 0.7,-9 -10.4,-10.3c-6.1,-0.7 -6.3,-0.8 -6.3,-3.6c0,-1.6 0.7,-4.6 1.5,-6.5c2,-4.9 3,-13 1.6,-13.8c-1.8,-1.1 -8.9,1.3 -10.6,3.7c-0.8,1.2 -1.5,3.1 -1.5,4.3c0,3.1 -2.2,4.5 -8.2,5c-6.7,0.7 -10.4,-1.5 -13.6,-7.9c-3,-6.1 -4.6,-16 -3.2,-20c0.5,-1.6 1,-4.9 1,-7.3c0,-4.9 1.6,-6.8 8.5,-10.5c4.3,-2.3 4.4,-2.3 11.7,-0.6c9.4,2.2 11.5,2.3 9.8,0.1c-1.1,-1.3 -1,-1.8 0.7,-3.6c1.8,-1.8 2.8,-1.9 9.6,-1.3c9.3,0.9 10.9,2.2 13.7,11.3c1.9,6.6 4.3,10.2 6.8,10.2c1.7,0 1.5,-2.5 -0.8,-10.6c-1,-3.9 -2.3,-9 -2.9,-11.3l-0.9,-4.3l7.4,-8.4c4.1,-4.5 7.4,-8.7 7.4,-9.1c0,-0.5 0.9,-1.4 2.1,-2.1c1.2,-0.7 1.8,-1.6 1.5,-1.9c-0.3,-0.4 -0.1,-1.2 0.5,-1.9c0.7,-0.9 0.7,-2.4 -0.2,-5.2c-2,-6.8 0.8,-12.6 3.2,-6.5l1.1,2.8l1.2,-3.6c2.6,-7.5 7.1,-11.9 12,-11.9c3.1,0 3.9,-1.2 2.7,-4.3c-1.7,-4.5 2,-8.3 11.9,-12.3c8.6,-3.4 13,-4.2 13,-2.4c0,0.5 -0.5,1 -1,1c-1.7,0 -6,4.7 -6,6.5c0,1.2 1.2,0.7 4.9,-1.7c4.8,-3.2 9.8,-6.3 13.3,-8.3c1,-0.5 1.8,-1.3 1.8,-1.7c0,-1.5 -2.3,-0.8 -5.2,1.7c-3.4,2.8 -4.8,2.8 -6.3,-0.1c-0.6,-1.1 -1.8,-1.8 -2.8,-1.6c-1.7,0.3 -7.7,-5 -7.7,-6.8c0,-0.5 1.4,-1.1 3,-1.5c3.1,-0.7 4.1,-3.2 1.5,-4.1c-2.1,-0.8 -7.8,1.3 -12.4,4.7c-4.5,3.2 -6.1,3.6 -6.1,1.5c0,-1.7 8.2,-9.1 12.4,-11.3c1.7,-0.9 7.3,-1.9 12.6,-2.3c9.4,-0.7 22.7,-4.3 24.2,-6.4c1.1,-1.5 1,-6.8 -0.1,-8.5c-0.7,-1 -2.1,-1.2 -5.3,-0.7c-7.9,1.2 -8.3,1.1 -8.3,-0.4c0,-0.8 1.9,-2.4 4.3,-3.5l4.2,-2.1l-6.5,-3.3c-3.5,-1.8 -7.1,-4.4 -8,-5.7c-0.8,-1.3 -1.3,-2.4 -1,-2.4c0.3,0 -0.7,-1.9 -2.4,-4.3c-1.6,-2.4 -3.4,-6.2 -4,-8.5c-0.7,-2.3 -1.5,-4.2 -1.8,-4.2c-0.4,0 -2.1,1.4 -3.9,3.1c-1.8,1.8 -5,3.5 -7.5,4c-4.2,1 -4.5,0.9 -7.1,-2.1c-2.9,-3.1 -3.5,-5.4 -1.8,-6.5c2.5,-1.5 0.6,-4.4 -5.6,-8.5c-5.5,-3.6 -7.7,-4.5 -12.4,-4.8c-5.4,-0.4 -5.9,-0.3 -7.6,2.3c-1.2,1.8 -1.9,4.8 -1.9,8.4c-0.1,3.1 -0.5,7.2 -0.9,9.2c-0.6,2.8 -0.3,4.3 1.3,7c2.6,4.3 2.6,7.9 0.1,12.9c-1.2,2.4 -2.4,7.5 -2.9,12.7c-1,10.1 -2.5,12.2 -7.1,9.8c-1.5,-0.8 -4.2,-3.1 -6,-5.1c-3,-3.4 -3.2,-4.1 -2.8,-9.4l0.4,-5.7l-6,-1.1c-3.8,-0.7 -8.8,-2.8 -13.8,-5.7c-4.2,-2.5 -8.6,-4.5 -9.7,-4.5c-2.2,0 -4.1,-2.7 -4.1,-5.9c0,-1.2 -0.6,-2.2 -1.2,-2.2c-0.7,-0.1 -1.7,-0.2 -2.3,-0.4c-0.5,-0.1 -1.5,-0.3 -2.2,-0.3c-1.9,-0.3 -3.5,-6.5 -2.4,-9.4c0.5,-1.4 3.1,-5.2 5.8,-8.4c2.7,-3.2 5.6,-7.3 6.4,-8.9c1.1,-2.4 2.2,-3.1 5.5,-3.5c4.3,-0.6 9.4,-3.3 9.4,-5c0,-0.5 -1.8,-1.5 -4,-2.1c-2.2,-0.7 -4,-1.5 -4,-1.9c0,-1.7 8.5,-2.6 10.7,-1.2c0.7,0.4 1.5,2.6 1.9,4.8c0.5,3.2 0.2,4.5 -1.2,5.9c-1.7,1.7 -1.7,1.8 0.1,3.1c2.9,2.1 5.7,1.7 8.1,-1.3l2.2,-2.8l3.7,1.8c2,0.9 4.1,1.5 4.7,1.1c1.6,-1 -4.3,-6.4 -9.8,-8.9c-2.8,-1.2 -5.9,-3.3 -6.8,-4.6l-1.6,-2.3l5.9,-1.2c5.6,-1.2 11.1,-3.8 11.1,-5.3c0,-0.4 -0.7,-1.7 -1.6,-3c-1,-1.4 -1.4,-3.3 -1,-5.1c0.7,-3.7 -2.2,-6 -7.6,-6c-3.6,0 -3.8,0.2 -3.2,2.5c0.4,1.8 -0.1,3.7 -2,6.5c-4,6.1 -6.5,5.1 -8,-3.1c-0.4,-2.1 -1.4,-4.3 -2.2,-5c-1.4,-1.1 -2,-0.8 -4.4,2c-2.8,3.5 -5,3.5 -5,0.1c0,-1.1 -1.1,-2.7 -2.5,-3.6c-1.9,-1.2 -2.3,-2.2 -1.9,-4c0.4,-1.6 -0.1,-3 -2,-4.8c-3.1,-3.2 -7,-3.3 -9,-0.4Zm25.1,120.4c-0.9,0.9 -2.8,-0.6 -2.1,-1.8c0.4,-0.6 1,-0.6 1.7,0.1c0.6,0.6 0.8,1.3 0.4,1.7Zm7.1,7.7c0.8,0.6 2.7,3 4.3,5.3c2.5,3.7 3.8,4.6 8.9,6c6.5,1.8 8.2,3.2 5.7,4.5c-0.8,0.5 -1.8,2.3 -2.2,3.9c-0.4,1.7 -0.9,3 -1.1,3c-1.3,0 -5.3,-5.8 -5.4,-7.6c0,-2.1 -1.7,-3.4 -4.6,-3.4c-1.7,0 -5,6.3 -5.9,11.5c-0.4,2.2 -1.1,4.7 -1.5,5.5c-1.3,2.2 -2.2,-2.5 -1.8,-9c0.3,-5.2 0.5,-5.6 4.2,-7.6l3.9,-2.2l-2.9,-1.8c-1.9,-1.3 -5.2,-2 -10.6,-2.3l-7.7,-0.3l5.7,-3.9c5.7,-3.8 7.9,-4.1 11,-1.6Zm35.7,3.8c0,0.7 -0.8,1.5 -1.7,1.7c-1.8,0.3 -2.5,-1.8 -1.1,-3.2c1,-1 2.8,-0.1 2.8,1.5Zm-11.5,5.4c0,0.8 -0.4,1.5 -0.9,1.5c-1.3,0 -2.2,-1.6 -1.4,-2.4c1.1,-1.1 2.3,-0.6 2.3,0.9Zm6,13.9c-3.6,1.8 -8.4,4.5 -10.8,6c-4.8,3 -8.1,3.1 -3.6,0.1c5.9,-3.9 17,-9.4 18.9,-9.4c1.1,0 -0.8,1.4 -4.5,3.3Z" style="fill:#313131;fill-rule:nonzero;"/>
    <path d="M303,90.6c0,0.8 0.5,1.2 1,0.9c0.6,-0.4 0.8,-1.1 0.5,-1.6c-0.9,-1.4 -1.5,-1.1 -1.5,0.7Z" style="fill:#313131;fill-rule:nonzero;"/>
    <path d="M1241.4,91.5c-1.8,1.4 -1.7,1.4 1.2,1.5c4.4,0 9.4,-1.1 9.4,-2.1c0,-1.5 -8.5,-1 -10.6,0.6Z" style="fill:#313131;fill-rule:nonzero;"/>
    <path d="M149.7,91.6c-0.8,0.8 0.1,2.4 1.4,2.4c0.5,0 0.9,-0.7 0.9,-1.5c0,-1.5 -1.2,-2 -2.3,-0.9Z" style="fill:#313131;fill-rule:nonzero;"/>
    <path d="M579,92.5c0,0.9 0.5,1.5 1.1,1.3c0.6,-0.2 1.1,-0.8 1.1,-1.3c0,-0.5 -0.5,-1.1 -1.1,-1.3c-0.6,-0.2 -1.1,0.4 -1.1,1.3Z" style="fill:#313131;fill-rule:nonzero;"/>
    <path d="M574.7,94.6c-0.8,0.8 0.1,2.4 1.4,2.4c0.5,0 0.9,-0.7 0.9,-1.5c0,-1.5 -1.2,-2 -2.3,-0.9Z" style="fill:#313131;fill-rule:nonzero;"/>
    <path d="M815.3,95.6c-0.6,1.7 2.3,4.3 5,4.4c2,0 2.3,-2.3 0.5,-3.7c-2.6,-2 -4.9,-2.3 -5.5,-0.7Z" style="fill:#313131;fill-rule:nonzero;"/>
    <path d="M671.7,95.7c-1.2,1.1 -0.8,2.3 0.8,2.3c0.8,0 1.5,-0.7 1.5,-1.5c0,-1.6 -1.2,-2 -2.3,-0.8Z" style="fill:#313131;fill-rule:nonzero;"/>
    <path d="M255.2,100.2c-1.7,1.7 -1.5,2.5 0.8,4.8c2.1,2.1 2.1,2.1 6.5,0.1c4.2,-1.9 6.4,-1.3 2.9,0.7c-1.6,0.9 -1.2,3.2 0.6,3.2c0.9,0 5,-6.2 5,-7.6c0,-0.5 -2.1,-0.8 -4.6,-0.5c-2.5,0.2 -5.1,-0.2 -5.7,-0.8c-1.4,-1.4 -4,-1.4 -5.5,0.1Z" style="fill:#313131;fill-rule:nonzero;"/>
    <path d="M779.6,101.6c-1.9,1.8 -1.3,3.4 1.3,3.4c2,0 4.1,-1.9 4.1,-3.7c0,-1.8 -3.5,-1.6 -5.4,0.3Z" style="fill:#313131;fill-rule:nonzero;"/>
    <path d="M322,102.4c0,0.9 0.7,1.6 1.6,1.6c1.7,0 1.4,-2.2 -0.4,-2.8c-0.7,-0.2 -1.2,0.3 -1.2,1.2Z" style="fill:#313131;fill-rule:nonzero;"/>
    <path d="M415,102c0,0.5 0.7,1 1.5,1c0.8,0 1.5,-0.5 1.5,-1c0,-0.6 -0.7,-1 -1.5,-1c-0.8,0 -1.5,0.4 -1.5,1Z" style="fill:#313131;fill-rule:nonzero;"/>
    <path d="M135.4,104.5c-1,0.8 -1.4,1.5 -0.8,1.5c0.6,0 1.7,-0.7 2.4,-1.5c1.6,-1.9 0.9,-1.9 -1.6,0Z" style="fill:#313131;fill-rule:nonzero;"/>
    <path d="M658.7,104.6c-0.8,0.8 0.1,2.4 1.4,2.4c0.5,0 0.9,-0.7 0.9,-1.5c0,-1.5 -1.2,-2 -2.3,-0.9Z" style="fill:#313131;fill-rule:nonzero;"/>
    <path d="M323.7,107.6c-0.8,0.8 0.1,2.4 1.4,2.4c0.5,0 0.9,-0.7 0.9,-1.5c0,-1.5 -1.2,-2 -2.3,-0.9Z" style="fill:#313131;fill-rule:nonzero;"/>
    <path d="M652.5,107.9c-0.7,1.2 1.2,2.4 2.5,1.6c1.1,-0.7 0.4,-2.5 -1,-2.5c-0.5,0 -1.1,0.4 -1.5,0.9Z" style="fill:#313131;fill-rule:nonzero;"/>
    <path d="M333.4,110.5c-1.6,1.2 -1.7,1.6 -0.5,2.4c1.8,1.1 4.1,0.3 4.1,-1.4c0,-2.2 -1.5,-2.6 -3.6,-1Z" style="fill:#313131;fill-rule:nonzero;"/>
    <path d="M351.3,119.2c0.2,0.7 1,1.3 1.7,1.3c0.7,0 1.5,-0.6 1.8,-1.3c0.2,-0.7 -0.5,-1.2 -1.8,-1.2c-1.3,0 -2,0.5 -1.7,1.2Z" style="fill:#313131;fill-rule:nonzero;"/>
    <path d="M540.4,120.7c-3.9,0.3 -5.3,0.8 -5.7,2.2c-0.5,2 -6.3,5.1 -9.9,5.2l-2.3,0.1l2.5,1.1c1.4,0.7 3.6,2.2 4.8,3.4c1.6,1.7 3.3,2.3 6.5,2.3c4.2,0 13.4,-3.3 18.2,-6.4l2.4,-1.6l-2.2,-3.5c-2.4,-3.7 -2.1,-3.6 -14.3,-2.8Z" style="fill:#313131;fill-rule:nonzero;"/>
    <path d="M523,122c-0.8,0.5 -1.1,1.2 -0.8,1.5c0.9,0.9 6.8,-0.5 6.8,-1.6c0,-1.2 -4.1,-1.1 -6,0.1Z" style="fill:#313131;fill-rule:nonzero;"/>
    <path d="M639.7,132.6c-0.8,0.8 0.1,2.4 1.4,2.4c0.5,0 0.9,-0.7 0.9,-1.5c0,-1.5 -1.2,-2 -2.3,-0.9Z" style="fill:#313131;fill-rule:nonzero;"/>
    <path d="M0,136.6c0.1,3 5.5,5.3 8.5,3.7c1.4,-0.8 1.4,-1.1 0.2,-2.2c-1.9,-1.5 -8.7,-2.7 -8.7,-1.5Z" style="fill:#313131;fill-rule:nonzero;"/>
    <path d="M332,137.5c0,0.8 0.7,1.5 1.5,1.5c0.8,0 1.5,-0.7 1.5,-1.5c0,-0.8 -0.7,-1.5 -1.5,-1.5c-0.8,0 -1.5,0.7 -1.5,1.5Z" style="fill:#313131;fill-rule:nonzero;"/>
    <path d="M326.6,137.7c-1.1,1.1 -0.6,2.3 0.9,2.3c0.8,0 1.5,-0.4 1.5,-0.9c0,-1.3 -1.6,-2.2 -2.4,-1.4Z" style="fill:#313131;fill-rule:nonzero;"/>
    <path d="M308,143.5c-1,1.2 -0.9,1.6 0.4,2.1c1.6,0.6 4.6,-1.1 4.6,-2.7c0,-1.5 -3.7,-1 -5,0.6Z" style="fill:#313131;fill-rule:nonzero;"/>
    <path d="M320.4,143.5c-0.7,1.8 0.2,4.5 1.5,4.5c1.2,0 2.4,-3.7 1.6,-5c-0.9,-1.5 -2.5,-1.2 -3.1,0.5Z" style="fill:#313131;fill-rule:nonzero;"/>
    <path d="M580.7,143.7c-0.2,0.4 -0.8,2.5 -1.1,4.7c-0.9,4.9 1.4,4.6 2.7,-0.4c0.8,-3 -0.4,-6.4 -1.6,-4.3Z" style="fill:#313131;fill-rule:nonzero;"/>
    <path d="M600.3,153.6c-0.9,2.3 1.1,3.8 2.6,2c1.3,-1.6 0.7,-3.6 -1,-3.6c-0.5,0 -1.2,0.7 -1.6,1.6Z" style="fill:#313131;fill-rule:nonzero;"/>
    <path d="M363,154.5c0,0.8 0.5,1.5 1,1.5c0.6,0 1,-0.7 1,-1.5c0,-0.8 -0.4,-1.5 -1,-1.5c-0.5,0 -1,0.7 -1,1.5Z" style="fill:#313131;fill-rule:nonzero;"/>
    <path d="M676.6,153.7c-1.1,1.1 -0.6,2.3 0.9,2.3c0.8,0 1.5,-0.4 1.5,-0.9c0,-1.3 -1.6,-2.2 -2.4,-1.4Z" style="fill:#313131;fill-rule:nonzero;"/>
    <path d="M14.7,155.6c-0.8,0.8 0.1,2.4 1.4,2.4c0.5,0 0.9,-0.7 0.9,-1.5c0,-1.5 -1.2,-2 -2.3,-0.9Z" style="fill:#313131;fill-rule:nonzero;"/>
    <path d="M591.3,164.2c-4.5,4.9 -5.4,7 -4.6,12.3c0.5,4 1.1,5.1 4,6.7c4.6,2.7 5.4,6.5 2.1,9.3c-1.4,1.2 -2.9,3.1 -3.2,4.3c-0.5,1.6 -0.2,2.1 1.6,2.4c3.7,0.5 3.3,3.2 -0.8,5.1c-4.7,2.3 -3.9,3.1 1.7,1.8c2.4,-0.6 6.3,-1.1 8.6,-1.1c5.6,0 7.1,-0.7 8.8,-4.1c1.9,-3.7 1.9,-3.8 -0.9,-4.9c-1.7,-0.6 -2.9,-2.2 -3.7,-5.1c-0.7,-2.2 -3.3,-6.3 -5.7,-9.1c-4.3,-4.7 -4.4,-5 -3.1,-7.6c0.7,-1.5 1.5,-3 1.7,-3.4c0.2,-0.4 -1,-0.5 -2.7,-0.2c-3.8,0.8 -4.1,-1.2 -1,-6.2c2.6,-4.3 1.2,-4.4 -2.8,-0.2Z" style="fill:#313131;fill-rule:nonzero;"/>
    <path d="M580.5,164c-0.4,0.6 -0.3,1.6 0.3,2.2c0.6,0.6 1.2,0.6 1.7,-0.2c0.4,-0.6 0.3,-1.6 -0.3,-2.2c-0.6,-0.6 -1.2,-0.6 -1.7,0.2Z" style="fill:#313131;fill-rule:nonzero;"/>
    <path d="M30.5,164.9c-0.6,1.1 0.9,2.3 1.9,1.4c0.9,-0.9 0.7,-2.3 -0.3,-2.3c-0.6,0 -1.2,0.4 -1.6,0.9Z" style="fill:#313131;fill-rule:nonzero;"/>
    <path d="M684.5,164.9c-0.6,1.1 0.9,2.3 1.9,1.4c0.9,-0.9 0.7,-2.3 -0.3,-2.3c-0.6,0 -1.2,0.4 -1.6,0.9Z" style="fill:#313131;fill-rule:nonzero;"/>
    <path d="M64.5,166.6c-4.3,2.2 -5.9,4 -5.1,5.9c0.5,1.5 0.9,1.4 3.6,-0.5c2.9,-2 5.6,-5.8 4.8,-6.5c-0.2,-0.3 -1.7,0.3 -3.3,1.1Z" style="fill:#313131;fill-rule:nonzero;"/>
    <path d="M122,169.6c0,1.7 2.2,1.4 2.8,-0.4c0.2,-0.7 -0.3,-1.2 -1.2,-1.2c-0.9,0 -1.6,0.7 -1.6,1.6Z" style="fill:#313131;fill-rule:nonzero;"/>
    <path d="M580.6,169.7c-1.1,1.1 -0.6,2.3 0.9,2.3c0.8,0 1.5,-0.4 1.5,-0.9c0,-1.3 -1.6,-2.2 -2.4,-1.4Z" style="fill:#313131;fill-rule:nonzero;"/>
    <path d="M670.7,169.7c-1.1,1 -0.8,4.3 0.3,4.3c1.5,0 2.4,-3 1.3,-4.1c-0.5,-0.5 -1.2,-0.6 -1.6,-0.2Z" style="fill:#313131;fill-rule:nonzero;"/>
    <path d="M3.2,175.1c0.2,0.6 0.8,1 1.3,1c0.5,0 1.1,-0.4 1.3,-1c0.2,-0.6 -0.4,-1.1 -1.3,-1.1c-0.9,0 -1.5,0.5 -1.3,1.1Z" style="fill:#313131;fill-rule:nonzero;"/>
    <path d="M56.5,175.9c-0.7,1.2 1.2,2.4 2.5,1.6c1.1,-0.7 0.4,-2.5 -1,-2.5c-0.5,0 -1.1,0.4 -1.5,0.9Z" style="fill:#313131;fill-rule:nonzero;"/>
    <path d="M320.7,177.6c-0.8,0.8 0.1,2.4 1.4,2.4c0.5,0 0.9,-0.7 0.9,-1.5c0,-1.5 -1.2,-2 -2.3,-0.9Z" style="fill:#313131;fill-rule:nonzero;"/>
    <path d="M54.5,180c-0.4,0.6 -0.3,1.6 0.3,2.2c0.6,0.6 1.2,0.6 1.7,-0.2c0.4,-0.6 0.3,-1.6 -0.3,-2.2c-0.6,-0.6 -1.2,-0.6 -1.7,0.2Z" style="fill:#313131;fill-rule:nonzero;"/>
    <path d="M132,181.6c0,3.1 2.3,2.8 2.8,-0.4c0.2,-1.5 -0.2,-2.2 -1.2,-2.2c-1.1,0 -1.6,0.9 -1.6,2.6Z" style="fill:#313131;fill-rule:nonzero;"/>
    <path d="M1192.5,180c-0.4,0.6 -0.3,1.6 0.3,2.2c0.6,0.6 1.2,0.6 1.7,-0.2c0.4,-0.6 0.3,-1.6 -0.3,-2.2c-0.6,-0.6 -1.2,-0.6 -1.7,0.2Z" style="fill:#313131;fill-rule:nonzero;"/>
    <path d="M645.3,182.6c-0.9,2.3 1.1,3.8 2.6,2c1.3,-1.6 0.7,-3.6 -1,-3.6c-0.5,0 -1.2,0.7 -1.6,1.6Z" style="fill:#313131;fill-rule:nonzero;"/>
    <path d="M657.6,182.7c-1.1,1.1 -0.6,2.3 0.9,2.3c0.8,0 1.5,-0.4 1.5,-0.9c0,-1.3 -1.6,-2.2 -2.4,-1.4Z" style="fill:#313131;fill-rule:nonzero;"/>
    <path d="M576.7,183.7c-0.4,0.3 -0.7,1.4 -0.7,2.4c0,1 -0.9,2.1 -2.1,2.4c-1.6,0.5 -1.9,1.2 -1.5,3c0.3,1.3 0.2,2.7 -0.4,3c-1.3,0.8 -1.3,5.5 0,5.5c2.1,0 8.9,-4 10.4,-6.2c1.9,-2.7 2.1,-7.9 0.4,-9.6c-1.3,-1.3 -5,-1.6 -6.1,-0.5Z" style="fill:#313131;fill-rule:nonzero;"/>
    <path d="M23.2,185.2c0.6,1.8 2.8,2.1 2.8,0.4c0,-0.9 -0.7,-1.6 -1.6,-1.6c-0.9,0 -1.4,0.5 -1.2,1.2Z" style="fill:#313131;fill-rule:nonzero;"/>
    <path d="M1112,186.7c0,1 -0.7,3.6 -1.6,6c-1.4,3.5 -1.4,4.8 -0.4,7.5c0.6,1.8 1.4,8.6 1.7,15.1c0.3,6.5 0.9,11.9 1.2,12.2c0.4,0.2 1.3,0 2.1,-0.5c1.2,-0.7 1.1,-1.4 -0.4,-4.2c-1,-1.8 -1.6,-4.7 -1.4,-6.3c0.3,-2.6 0.7,-3 3,-2.7l2.7,0.3l-2.1,-4.8c-1.5,-3.4 -2.3,-7.6 -2.6,-14.6c-0.3,-5.3 -0.9,-9.7 -1.3,-9.7c-0.5,0 -0.9,0.8 -0.9,1.7Z" style="fill:#313131;fill-rule:nonzero;"/>
    <path d="M1199.7,185.7c-1.2,1.1 -0.8,2.3 0.8,2.3c0.8,0 1.5,-0.7 1.5,-1.5c0,-1.6 -1.2,-2 -2.3,-0.8Z" style="fill:#313131;fill-rule:nonzero;"/>
    <path d="M13.2,188.2c0.7,1.9 3.8,2.2 3.8,0.4c0,-1 -0.9,-1.6 -2.1,-1.6c-1.2,0 -1.9,0.5 -1.7,1.2Z" style="fill:#313131;fill-rule:nonzero;"/>
    <path d="M132,189c0,1.1 0.7,2 1.5,2c0.8,0 1.5,-0.9 1.5,-2c0,-1.1 -0.7,-2 -1.5,-2c-0.8,0 -1.5,0.9 -1.5,2Z" style="fill:#313131;fill-rule:nonzero;"/>
    <path d="M7.7,191.7c-1.2,1.1 -0.8,2.3 0.8,2.3c0.8,0 1.5,-0.7 1.5,-1.5c0,-1.6 -1.2,-2 -2.3,-0.8Z" style="fill:#313131;fill-rule:nonzero;"/>
    <path d="M313,194.2c0,1.6 1.9,3.8 3.3,3.8c0.4,0 0.7,-1 0.5,-2.2c-0.3,-2.5 -3.8,-3.9 -3.8,-1.6Z" style="fill:#313131;fill-rule:nonzero;"/>
    <path d="M1217.2,194.1c0.2,0.6 0.8,1 1.3,1c0.5,0 1.1,-0.4 1.3,-1c0.2,-0.6 -0.4,-1.1 -1.3,-1.1c-0.9,0 -1.5,0.5 -1.3,1.1Z" style="fill:#313131;fill-rule:nonzero;"/>
    <path d="M135,197c0.1,0.8 0.7,2.8 1.6,4.5l1.4,3l-0.5,-3.5c-0.5,-3.5 -2.5,-6.7 -2.5,-4Z" style="fill:#313131;fill-rule:nonzero;"/>
    <path d="M1155.7,205.3c-0.3,0.8 -0.1,2 0.4,2.8c1.1,1.9 3.4,-0.3 2.6,-2.5c-0.8,-2 -2.3,-2.1 -3,-0.3Z" style="fill:#313131;fill-rule:nonzero;"/>
    <path d="M153,208c0,0.5 0.9,1 2.1,1c1.1,0 3.3,1.3 4.7,3c1.5,1.6 3.1,3 3.6,3c1.5,0 -3.6,-5 -6.6,-6.6c-3.2,-1.7 -3.8,-1.7 -3.8,-0.4Z" style="fill:#313131;fill-rule:nonzero;"/>
    <path d="M400.8,211.3c-5.6,4.6 -6.8,6.8 -4.7,9.4c1.3,1.5 5,1.4 10.7,-0.3c1.9,-0.6 2.2,-0.3 2.2,2.5c0,3.4 1.1,3.9 3,1.6c0.9,-1 1.7,-1.2 3,-0.5c1.7,0.9 3,0.4 3,-1.2c0,-0.4 -0.9,-0.8 -2,-0.8c-1.7,0 -1.9,-0.5 -1.4,-2.4c0.8,-3.2 -2.6,-6.6 -6.6,-6.6c-3.4,0 -3.7,-0.6 -1.4,-3.1c0.9,-1 1.1,-1.9 0.5,-2.3c-0.5,-0.4 -3.4,1.3 -6.3,3.7Z" style="fill:#313131;fill-rule:nonzero;"/>
    <path d="M378.5,211.9c-0.8,1.3 3.5,4.1 6.2,4.1c3.1,0 2.9,-2.4 -0.2,-3.8c-3.1,-1.4 -5.2,-1.5 -6,-0.3Z" style="fill:#313131;fill-rule:nonzero;"/>
    <path d="M1153.6,211.7c-1.1,1.1 -0.6,2.3 0.9,2.3c0.8,0 1.5,-0.4 1.5,-0.9c0,-1.3 -1.6,-2.2 -2.4,-1.4Z" style="fill:#313131;fill-rule:nonzero;"/>
    <path d="M1148.7,216.6c-0.8,0.8 0.1,2.4 1.4,2.4c0.5,0 0.9,-0.7 0.9,-1.5c0,-1.5 -1.2,-2 -2.3,-0.9Z" style="fill:#313131;fill-rule:nonzero;"/>
    <path d="M1144.5,222c-0.4,0.6 -0.3,1.6 0.3,2.2c0.6,0.6 1.2,0.6 1.7,-0.2c0.4,-0.6 0.3,-1.6 -0.3,-2.2c-0.6,-0.6 -1.2,-0.6 -1.7,0.2Z" style="fill:#313131;fill-rule:nonzero;"/>
    <path d="M403,224.5c0,0.8 0.7,1.5 1.5,1.5c0.8,0 1.5,-0.7 1.5,-1.5c0,-0.8 -0.7,-1.5 -1.5,-1.5c-0.8,0 -1.5,0.7 -1.5,1.5Z" style="fill:#313131;fill-rule:nonzero;"/>
    <path d="M1135.7,227.6c-0.8,0.8 0.1,2.4 1.4,2.4c0.5,0 0.9,-0.7 0.9,-1.5c0,-1.5 -1.2,-2 -2.3,-0.9Z" style="fill:#313131;fill-rule:nonzero;"/>
    <path d="M1130.6,231.7c-1.3,1.4 -0.5,3.3 1.4,3.3c1.1,0 2,-0.6 2,-1.4c0,-1.5 -2.4,-2.8 -3.4,-1.9Z" style="fill:#313131;fill-rule:nonzero;"/>
    <path d="M1107.6,233.6c-0.3,0.9 -0.6,2.6 -0.6,3.9c0,1.3 -1,3 -2.6,4c-2.1,1.3 -2.5,2.2 -1.9,4.3c0.4,1.5 1.1,3.3 1.7,4c1.3,1.6 3.3,1 3.3,-0.9c0,-0.9 0.9,-1.3 2.3,-1.1c1.2,0.2 3.4,-0.6 4.8,-1.7c1.5,-1.2 3.3,-2.1 4,-2.1c1.7,0 3.7,-3.7 3,-5.6c-0.4,-1 -1.3,-1.3 -2.4,-1c-1.2,0.4 -3.2,-0.4 -5.7,-2.4c-4.3,-3.4 -5.1,-3.6 -5.9,-1.4Z" style="fill:#313131;fill-rule:nonzero;"/>
    <path d="M1125.2,236.1c0.2,0.6 0.8,1 1.3,1c0.5,0 1.1,-0.4 1.3,-1c0.2,-0.6 -0.4,-1.1 -1.3,-1.1c-0.9,0 -1.5,0.5 -1.3,1.1Z" style="fill:#313131;fill-rule:nonzero;"/>
    <path d="M1124.6,240.7c-1.1,1.1 -0.6,2.3 0.9,2.3c0.8,0 1.5,-0.4 1.5,-0.9c0,-1.3 -1.6,-2.2 -2.4,-1.4Z" style="fill:#313131;fill-rule:nonzero;"/>
    <path d="M636.4,246.1c-1,1.7 1.3,3.6 2.7,2.2c1.2,-1.2 0.4,-3.3 -1.1,-3.3c-0.5,0 -1.2,0.5 -1.6,1.1Z" style="fill:#313131;fill-rule:nonzero;"/>
    <path d="M1102.5,255.2c-0.3,0.7 -0.9,3.3 -1.3,5.8c-0.7,4.1 -1,4.5 -3.5,4.3c-2.4,-0.2 -2.7,0.1 -2.4,3c0.2,2.9 -0.1,3.2 -2.5,3.2c-1.6,0 -3.4,1 -4.7,2.7c-1.5,1.8 -3.7,3 -7.4,3.8c-3,0.6 -6.8,2.4 -9,4.1c-2.8,2.3 -4.4,2.9 -6.3,2.5c-2.9,-0.8 -2.9,-0.6 -0.4,4.4c1.1,2.2 2,5.2 2,6.8c0,1.6 0.6,3.5 1.4,4.1c1.6,1.3 2.4,0.6 5.5,-5.7c1.6,-3.1 2.7,-4.2 4.5,-4.2c1.3,0 3,-0.7 3.7,-1.6c1.1,-1.4 0.9,-1.9 -1.1,-3.5c-2.2,-1.6 -2.2,-1.9 -0.7,-1.9c1.1,0 3.1,1.3 4.6,2.9l2.8,3l2.1,-2.1c1.5,-1.6 3.7,-2.3 8,-2.6l5.9,-0.4l1.3,-5.7c0.7,-3.1 2.1,-7.9 3.1,-10.6c2.1,-5.6 2.4,-8.8 0.9,-11.6c-1.2,-2.1 -5.8,-2.6 -6.5,-0.7Z" style="fill:#313131;fill-rule:nonzero;"/>
    <path d="M636.4,256.5c-0.4,0.8 -0.3,2.3 0,3.2c0.6,1.5 0.8,1.5 2.3,0.1c1.6,-1.7 1.2,-4.8 -0.7,-4.8c-0.6,0 -1.3,0.7 -1.6,1.5Z" style="fill:#313131;fill-rule:nonzero;"/>
    <path d="M619.8,257.2c-1.6,0.5 -2.8,1.7 -2.8,2.5c0,1 0.5,1.3 1.8,0.8c0.9,-0.4 2.5,-1 3.5,-1.2c1.8,-0.5 2.3,-1.9 1,-2.6c-0.5,-0.2 -2,0 -3.5,0.5Z" style="fill:#313131;fill-rule:nonzero;"/>
    <path d="M610.7,262.6c-0.8,0.8 0.1,2.4 1.4,2.4c0.5,0 0.9,-0.7 0.9,-1.5c0,-1.5 -1.2,-2 -2.3,-0.9Z" style="fill:#313131;fill-rule:nonzero;"/>
    <path d="M653.3,267.7c-2.2,0.8 -1.4,2 2.3,3.8c3,1.4 3.8,1.5 4.5,0.4c1.3,-2.1 1.1,-2.7 -1,-3.9c-2.1,-1.1 -3.8,-1.2 -5.8,-0.3Z" style="fill:#313131;fill-rule:nonzero;"/>
    <path d="M677.7,268.6c-0.8,0.8 0.1,2.4 1.4,2.4c0.5,0 0.9,-0.7 0.9,-1.5c0,-1.5 -1.2,-2 -2.3,-0.9Z" style="fill:#313131;fill-rule:nonzero;"/>
    <path d="M647.6,272.7c-1.1,1.1 -0.6,2.3 0.9,2.3c0.8,0 1.5,-0.4 1.5,-0.9c0,-1.3 -1.6,-2.2 -2.4,-1.4Z" style="fill:#313131;fill-rule:nonzero;"/>
    <path d="M699.6,272.7c-1.1,1.1 -0.6,2.3 0.9,2.3c0.8,0 1.5,-0.4 1.5,-0.9c0,-1.3 -1.6,-2.2 -2.4,-1.4Z" style="fill:#313131;fill-rule:nonzero;"/>
    <path d="M692,275.5c0,0.9 0.5,1.5 1.1,1.3c0.6,-0.2 1.1,-0.8 1.1,-1.3c0,-0.5 -0.5,-1.1 -1.1,-1.3c-0.6,-0.2 -1.1,0.4 -1.1,1.3Z" style="fill:#313131;fill-rule:nonzero;"/>
    <path d="M721,279.5c0,2.1 2.7,3 4.5,1.5c1.9,-1.6 1,-3 -2.1,-3c-1.5,0 -2.4,0.6 -2.4,1.5Z" style="fill:#313131;fill-rule:nonzero;"/>
    <path d="M693.8,281.7c0.7,0.3 1.6,0.2 1.9,-0.1c0.4,-0.3 -0.2,-0.6 -1.3,-0.5c-1.1,0 -1.4,0.3 -0.6,0.6Z" style="fill:#313131;fill-rule:nonzero;"/>
    <path d="M1054.7,288.7c-1.2,1.1 -0.8,2.3 0.8,2.3c0.8,0 1.5,-0.7 1.5,-1.5c0,-1.6 -1.2,-2 -2.3,-0.8Z" style="fill:#313131;fill-rule:nonzero;"/>
    <path d="M1060.2,294.1c0.2,0.6 0.8,1 1.3,1c0.5,0 1.1,-0.4 1.3,-1c0.2,-0.6 -0.4,-1.1 -1.3,-1.1c-0.9,0 -1.5,0.5 -1.3,1.1Z" style="fill:#313131;fill-rule:nonzero;"/>
    <path d="M1064.5,312c-0.4,0.6 -0.3,1.6 0.3,2.2c0.6,0.6 1.2,0.6 1.7,-0.2c0.4,-0.6 0.3,-1.6 -0.3,-2.2c-0.6,-0.6 -1.2,-0.6 -1.7,0.2Z" style="fill:#313131;fill-rule:nonzero;"/>
    <path d="M1057.7,318.7c-1.2,1.1 -0.7,4.3 0.6,4.3c1.7,0 3.7,-2 3.7,-3.7c0,-1.3 -3.2,-1.8 -4.3,-0.6Z" style="fill:#313131;fill-rule:nonzero;"/>
    <path d="M798,323.5c0,0.9 0.5,1.5 1.1,1.3c0.6,-0.2 1.1,-0.8 1.1,-1.3c0,-0.5 -0.5,-1.1 -1.1,-1.3c-0.6,-0.2 -1.1,0.4 -1.1,1.3Z" style="fill:#313131;fill-rule:nonzero;"/>
    <path d="M1050,327.5c0,0.8 0.7,1.5 1.5,1.5c0.8,0 1.5,-0.7 1.5,-1.5c0,-0.8 -0.7,-1.5 -1.5,-1.5c-0.8,0 -1.5,0.7 -1.5,1.5Z" style="fill:#313131;fill-rule:nonzero;"/>
    <path d="M328.5,328c-0.4,0.6 -0.3,1.6 0.3,2.2c0.6,0.6 1.2,0.6 1.7,-0.2c0.4,-0.6 0.3,-1.6 -0.3,-2.2c-0.6,-0.6 -1.2,-0.6 -1.7,0.2Z" style="fill:#313131;fill-rule:nonzero;"/>
    <path d="M335.5,328c-0.4,0.6 -0.3,1.6 0.3,2.2c0.6,0.6 1.2,0.6 1.7,-0.2c0.4,-0.6 0.3,-1.6 -0.3,-2.2c-0.6,-0.6 -1.2,-0.6 -1.7,0.2Z" style="fill:#313131;fill-rule:nonzero;"/>
    <path d="M1044.5,328c-0.4,0.6 -0.3,1.6 0.3,2.2c0.6,0.6 1.2,0.6 1.7,-0.2c0.4,-0.6 0.3,-1.6 -0.3,-2.2c-0.6,-0.6 -1.2,-0.6 -1.7,0.2Z" style="fill:#313131;fill-rule:nonzero;"/>
    <path d="M1034,331.5c-1.2,3.5 -0.6,7.5 1.1,7.5c0.5,0 0.9,-0.8 0.9,-1.8c0,-0.9 0.3,-3.4 0.6,-5.5c0.8,-4.8 -1,-5 -2.6,-0.2Z" style="fill:#313131;fill-rule:nonzero;"/>
    <path d="M332,332.9c0,1.1 4,3.1 6.1,3.1c0.5,0 0.9,-0.7 0.9,-1.5c0,-0.8 -0.6,-1.5 -1.2,-1.5c-0.7,0 -2.3,-0.3 -3.5,-0.6c-1.4,-0.4 -2.3,-0.2 -2.3,0.5Z" style="fill:#313131;fill-rule:nonzero;"/>
    <path d="M309.3,335.5c-3.9,1.7 -4.1,2.8 -0.8,4.3c1.4,0.6 2.5,1.8 2.5,2.7c0,0.8 0.5,1.5 1.1,1.5c0.7,0 0.8,-1.1 0.4,-3c-0.6,-2.9 -0.6,-3 1.8,-2.1c7.2,2.8 15,7.4 15.5,9.3c0.4,1.7 1.1,1.9 4.5,1.5c8.8,-1.2 7.4,-3.7 -5.6,-10.1c-10.7,-5.2 -14.9,-6.1 -19.4,-4.1Z" style="fill:#313131;fill-rule:nonzero;"/>
    <path d="M342.7,336.7c-1.2,1.1 -0.8,2.3 0.8,2.3c0.8,0 1.5,-0.7 1.5,-1.5c0,-1.6 -1.2,-2 -2.3,-0.8Z" style="fill:#313131;fill-rule:nonzero;"/>
    <path d="M348.2,339.1c0.2,0.6 0.8,1 1.3,1c0.5,0 1.1,-0.4 1.3,-1c0.2,-0.6 -0.4,-1.1 -1.3,-1.1c-0.9,0 -1.5,0.5 -1.3,1.1Z" style="fill:#313131;fill-rule:nonzero;"/>
    <path d="M345.2,343.2c0.6,1.8 2.8,2.1 2.8,0.4c0,-0.9 -0.7,-1.6 -1.6,-1.6c-0.9,0 -1.4,0.5 -1.2,1.2Z" style="fill:#313131;fill-rule:nonzero;"/>
    <path d="M992.3,350.5c-0.3,0.9 -0.3,1.8 0,2.1c0.7,0.8 4.7,-1.5 4.7,-2.6c0,-1.6 -4,-1.1 -4.7,0.5Z" style="fill:#313131;fill-rule:nonzero;"/>
    <path d="M345.8,352.9c-0.9,1.1 -1.4,2.2 -1,2.5c0.7,0.8 8.8,0.7 13.7,-0.3c3.9,-0.7 3.9,-0.7 1.7,-2c-1.3,-0.7 -4.7,-1.4 -7.5,-1.7c-4.2,-0.3 -5.5,0 -6.9,1.5Z" style="fill:#313131;fill-rule:nonzero;"/>
    <path d="M367.5,353.9c-0.8,1.5 0.3,3.1 2.1,3.1c0.9,0 1.4,-0.7 1.2,-1.7c-0.4,-2 -2.4,-2.8 -3.3,-1.4Z" style="fill:#313131;fill-rule:nonzero;"/>
    <path d="M326.6,355.9c-0.9,1.3 1.9,3.2 3.8,2.5c2.5,-1 1.9,-3.4 -0.8,-3.4c-1.4,0 -2.7,0.4 -3,0.9Z" style="fill:#313131;fill-rule:nonzero;"/>
    <path d="M1034.3,356.2c-1.6,2.1 -2.5,11.6 -1.3,13.8c0.6,1.1 2.6,2.6 4.4,3.4c3.7,1.6 7.6,6 7.6,8.7c0,1.1 0.5,1.9 1,1.9c0.6,0 1,-0.8 1,-1.7c0,-1.3 0.3,-1.4 1.2,-0.5c0.7,0.7 1.7,1.2 2.2,1.2c0.6,0 -1.5,-2.6 -4.5,-5.8c-3.1,-3.1 -6.6,-7 -7.8,-8.6c-2.1,-2.9 -2.1,-3 -0.2,-5c2.5,-2.8 3,-4.7 1.9,-6.9c-1,-2 -4.1,-2.3 -5.5,-0.5Z" style="fill:#313131;fill-rule:nonzero;"/>
    <path d="M302,359.5c0,0.9 0.5,1.5 1.1,1.3c0.6,-0.2 1.1,-0.8 1.1,-1.3c0,-0.5 -0.5,-1.1 -1.1,-1.3c-0.6,-0.2 -1.1,0.4 -1.1,1.3Z" style="fill:#313131;fill-rule:nonzero;"/>
    <path d="M1047,372.5c0,0.8 0.7,1.5 1.5,1.5c0.8,0 1.5,-0.7 1.5,-1.5c0,-0.8 -0.7,-1.5 -1.5,-1.5c-0.8,0 -1.5,0.7 -1.5,1.5Z" style="fill:#313131;fill-rule:nonzero;"/>
    <path d="M1034,379c0,1.1 0.7,2 1.5,2c0.8,0 1.5,-0.9 1.5,-2c0,-1.1 -0.7,-2 -1.5,-2c-0.8,0 -1.5,0.9 -1.5,2Z" style="fill:#313131;fill-rule:nonzero;"/>
    <path d="M361.6,378.7c-1.1,1.1 -0.6,2.3 0.9,2.3c0.8,0 1.5,-0.4 1.5,-0.9c0,-1.3 -1.6,-2.2 -2.4,-1.4Z" style="fill:#313131;fill-rule:nonzero;"/>
    <path d="M932.7,378.6c-0.8,0.8 0.1,2.4 1.4,2.4c0.5,0 0.9,-0.7 0.9,-1.5c0,-1.5 -1.2,-2 -2.3,-0.9Z" style="fill:#313131;fill-rule:nonzero;"/>
    <path d="M367.2,381.1c0.2,0.6 0.8,1 1.3,1c0.5,0 1.1,-0.4 1.3,-1c0.2,-0.6 -0.4,-1.1 -1.3,-1.1c-0.9,0 -1.5,0.5 -1.3,1.1Z" style="fill:#313131;fill-rule:nonzero;"/>
    <path d="M795,381.5c0,0.9 0.5,1.5 1.1,1.3c0.6,-0.2 1.1,-0.8 1.1,-1.3c0,-0.5 -0.5,-1.1 -1.1,-1.3c-0.6,-0.2 -1.1,0.4 -1.1,1.3Z" style="fill:#313131;fill-rule:nonzero;"/>
    <path d="M384.7,381.6c-0.8,0.8 0.1,2.4 1.4,2.4c0.5,0 0.9,-0.7 0.9,-1.5c0,-1.5 -1.2,-2 -2.3,-0.9Z" style="fill:#313131;fill-rule:nonzero;"/>
    <path d="M1029.5,381.9c-0.7,1.2 1.2,2.4 2.5,1.6c1.1,-0.7 0.4,-2.5 -1,-2.5c-0.5,0 -1.1,0.4 -1.5,0.9Z" style="fill:#313131;fill-rule:nonzero;"/>
    <path d="M932.7,384.6c-0.8,0.8 0.1,2.4 1.4,2.4c0.5,0 0.9,-0.7 0.9,-1.5c0,-1.5 -1.2,-2 -2.3,-0.9Z" style="fill:#313131;fill-rule:nonzero;"/>
    <path d="M1038.7,384.6c-0.8,0.8 0.1,2.4 1.4,2.4c0.5,0 0.9,-0.7 0.9,-1.5c0,-1.5 -1.2,-2 -2.3,-0.9Z" style="fill:#313131;fill-rule:nonzero;"/>
    <path d="M389.5,386.1c-1,1.5 0.3,2.5 1.6,1.2c0.7,-0.7 0.7,-1.3 0.1,-1.7c-0.6,-0.3 -1.4,-0.1 -1.7,0.5Z" style="fill:#313131;fill-rule:nonzero;"/>
    <path d="M349,387.7c0,0.5 0.5,1.5 1,2.3c0.8,1.2 1,1.1 1,-0.8c0,-1.2 -0.4,-2.2 -1,-2.2c-0.5,0 -1,0.3 -1,0.7Z" style="fill:#313131;fill-rule:nonzero;"/>
    <path d="M1025.1,391.1c-2.3,3.7 -2.6,4.9 -1.3,4.9c1,0 4.5,-7.1 3.8,-7.7c-0.3,-0.3 -1.4,1 -2.5,2.8Z" style="fill:#313131;fill-rule:nonzero;"/>
    <path d="M1051.6,388.7c-1.1,1.1 -0.6,2.3 0.9,2.3c0.8,0 1.5,-0.4 1.5,-0.9c0,-1.3 -1.6,-2.2 -2.4,-1.4Z" style="fill:#313131;fill-rule:nonzero;"/>
    <path d="M971.5,390.9c-0.7,1.2 1.2,2.4 2.5,1.6c1.1,-0.7 0.4,-2.5 -1,-2.5c-0.5,0 -1.1,0.4 -1.5,0.9Z" style="fill:#313131;fill-rule:nonzero;"/>
    <path d="M1048.1,396.6c-1.8,0.8 -3.9,1.3 -4.7,1c-1.2,-0.5 -5,4.1 -4.1,5.1c0.3,0.2 1.4,0 2.4,-0.5c2.3,-1.3 3.8,-0.5 4.7,2.5c0.8,2.5 1.8,2.8 4.6,1.3c2.1,-1.1 3.3,-5.1 2.4,-8.5c-0.7,-2.8 -0.7,-2.9 -5.3,-0.9Z" style="fill:#313131;fill-rule:nonzero;"/>
    <path d="M888.5,399c-0.9,3.9 0.2,7 2.4,7c3.4,0 4.4,-2.4 2.7,-6.4c-1.8,-4.4 -4.2,-4.7 -5.1,-0.6Z" style="fill:#313131;fill-rule:nonzero;"/>
    <path d="M1081.8,404.2c-0.7,2 0.3,4.9 1.6,4.5c1.5,-0.5 1.4,-4.9 0,-5.4c-0.7,-0.2 -1.4,0.2 -1.6,0.9Z" style="fill:#313131;fill-rule:nonzero;"/>
    <path d="M937.6,404.7c-1.1,1.1 -0.6,2.3 0.9,2.3c0.8,0 1.5,-0.4 1.5,-0.9c0,-1.3 -1.6,-2.2 -2.4,-1.4Z" style="fill:#313131;fill-rule:nonzero;"/>
    <path d="M1011.7,413.5c-4.3,4.1 -8.4,7.5 -9.2,7.5c-0.7,0 -2,1.1 -2.9,2.4c-0.8,1.4 -2.8,3.1 -4.3,3.8c-2.4,1.2 -2.8,1.9 -2.5,4.8c0.4,4.7 5.9,13.7 9.1,14.9c3.6,1.3 11.3,2.1 13.9,1.4c1.8,-0.4 2.2,-1.3 2.2,-4.4c0,-3.6 1.6,-6.9 6.7,-13.9c1.5,-2 1.7,-3.1 0.9,-5.8c-0.6,-1.7 -1.6,-3.2 -2.2,-3.2c-2.8,0 -2.5,-2.3 0.7,-5.6l3.3,-3.4l-2.9,-3c-1.6,-1.6 -3.4,-3 -3.9,-3c-0.6,0.1 -4.6,3.4 -8.9,7.5Z" style="fill:#313131;fill-rule:nonzero;"/>
    <path d="M1032.7,407.6c-0.8,0.8 0.1,2.4 1.4,2.4c0.5,0 0.9,-0.7 0.9,-1.5c0,-1.5 -1.2,-2 -2.3,-0.9Z" style="fill:#313131;fill-rule:nonzero;"/>
    <path d="M945.7,412.2c5.5,6.9 8.9,12 10.3,15.3c0.9,2.2 2.8,5.4 4.2,7c1.4,1.7 3.3,4.7 4.3,6.8c2.2,4.6 10.9,14.1 12.5,13.5c1.5,-0.5 5.2,-9.8 4.5,-11.6c-0.2,-0.6 -1.2,-1.2 -2.1,-1.2c-2.5,0 -8.1,-4.6 -9,-7.2c-0.4,-1.3 -4.3,-6.4 -8.7,-11.3c-5.9,-6.7 -9.1,-9.5 -12.5,-10.8c-3,-1.2 -4.2,-1.4 -3.5,-0.5Z" style="fill:#313131;fill-rule:nonzero;"/>
    <path d="M987.5,416.9c-0.7,1.2 1.2,2.4 2.5,1.6c1.1,-0.7 0.4,-2.5 -1,-2.5c-0.5,0 -1.1,0.4 -1.5,0.9Z" style="fill:#313131;fill-rule:nonzero;"/>
    <path d="M632.6,417.7c-1.1,1.1 -0.6,2.3 0.9,2.3c0.8,0 1.5,-0.4 1.5,-0.9c0,-1.3 -1.6,-2.2 -2.4,-1.4Z" style="fill:#313131;fill-rule:nonzero;"/>
    <path d="M944.6,420.7c-1.1,1.1 -0.6,2.3 0.9,2.3c0.8,0 1.5,-0.4 1.5,-0.9c0,-1.3 -1.6,-2.2 -2.4,-1.4Z" style="fill:#313131;fill-rule:nonzero;"/>
    <path d="M1060.6,420.7c-1.1,1.1 -0.6,2.3 0.9,2.3c0.8,0 1.5,-0.4 1.5,-0.9c0,-1.3 -1.6,-2.2 -2.4,-1.4Z" style="fill:#313131;fill-rule:nonzero;"/>
    <path d="M629.7,423.7c-1.2,1.1 -0.8,2.3 0.8,2.3c0.8,0 1.5,-0.7 1.5,-1.5c0,-1.6 -1.2,-2 -2.3,-0.8Z" style="fill:#313131;fill-rule:nonzero;"/>
    <path d="M950.5,428c-0.4,0.6 -0.3,1.6 0.3,2.2c0.6,0.6 1.2,0.6 1.7,-0.2c0.4,-0.6 0.3,-1.6 -0.3,-2.2c-0.6,-0.6 -1.2,-0.6 -1.7,0.2Z" style="fill:#313131;fill-rule:nonzero;"/>
    <path d="M1059.2,428.2c-1.4,1.4 -1.5,4.7 -0.3,6.7c0.6,1 1.2,0.3 2.1,-2.4c1.3,-4 0.3,-6.4 -1.8,-4.3Z" style="fill:#313131;fill-rule:nonzero;"/>
    <path d="M625,430.5c0,0.8 0.7,1.5 1.5,1.5c0.8,0 1.5,-0.7 1.5,-1.5c0,-0.8 -0.7,-1.5 -1.5,-1.5c-0.8,0 -1.5,0.7 -1.5,1.5Z" style="fill:#313131;fill-rule:nonzero;"/>
    <path d="M1033.4,430c-3.8,1.5 -5.7,13.8 -3.7,23.3c1.8,8.2 3.3,8 3,-0.4c-0.2,-6 0.1,-7.4 1.3,-7.4c0.9,0 2.1,1.9 3.1,4.9c1.9,6.2 3.9,7.2 3.9,2.1c0,-2.7 -0.8,-4.7 -3.1,-7.2c-3.7,-4.3 -3.4,-5.7 1.4,-6.1c5.2,-0.4 3.6,-2.2 -1.9,-2.2c-3.2,0 -4.6,-0.5 -5.1,-1.6c-1,-2.6 2.4,-4.4 8.1,-4.4c2.8,0 5.8,-0.5 6.6,-1c1.9,-1.2 -10.5,-1.3 -13.6,0Z" style="fill:#313131;fill-rule:nonzero;"/>
    <path d="M1066,433.6c0,0.9 0.5,1.4 1.2,1.2c1.8,-0.6 2.1,-2.8 0.4,-2.8c-0.9,0 -1.6,0.7 -1.6,1.6Z" style="fill:#313131;fill-rule:nonzero;"/>
    <path d="M1072,437c0,0.5 1.5,1.7 3.3,2.6c4.3,2.2 4.3,2.1 2.3,4.3c-2.1,2.3 -1.2,4.4 1.3,3.6c4.3,-1.3 19.1,8.4 19.1,12.5c0,1 -0.7,2.3 -1.5,3c-2.2,1.8 -1.8,3 0.9,3c1.3,0 4.3,0.9 6.7,2c5.8,2.6 8.3,2.5 11.3,-0.5c3.4,-3.4 6.8,-3.2 9.9,0.5c1.4,1.6 2.7,3.4 2.9,4c0.4,1.2 8.8,4.3 9.6,3.6c0.3,-0.3 -1.4,-2.4 -3.7,-4.7c-2.9,-2.9 -4.3,-5.3 -4.7,-8.1c-0.7,-4.2 -2,-5.4 -12.6,-11.4c-7,-4 -20,-9.4 -22.5,-9.4c-0.9,0 -2.9,1.2 -4.5,2.7l-2.8,2.7l-2.5,-2.4c-1.4,-1.3 -2.5,-3.3 -2.5,-4.6c0,-1.7 -0.9,-2.4 -4.4,-3.3c-5.4,-1.3 -5.6,-1.3 -5.6,-0.1Z" style="fill:#313131;fill-rule:nonzero;"/>
    <path d="M956,439.5c0,0.9 0.5,1.5 1.1,1.3c0.6,-0.2 1.1,-0.8 1.1,-1.3c0,-0.5 -0.5,-1.1 -1.1,-1.3c-0.6,-0.2 -1.1,0.4 -1.1,1.3Z" style="fill:#313131;fill-rule:nonzero;"/>
    <path d="M1065.6,438.8c-0.8,1.3 1.1,3.5 2.3,2.8c1.6,-1 1.4,-3.6 -0.3,-3.6c-0.8,0 -1.7,0.4 -2,0.8Z" style="fill:#313131;fill-rule:nonzero;"/>
    <path d="M1086.2,439.1c0.2,0.6 0.8,1 1.3,1c0.5,0 1.1,-0.4 1.3,-1c0.2,-0.6 -0.4,-1.1 -1.3,-1.1c-0.9,0 -1.5,0.5 -1.3,1.1Z" style="fill:#313131;fill-rule:nonzero;"/>
    <path d="M1109.2,439.2c0.6,1.8 2.8,2.1 2.8,0.4c0,-0.9 -0.7,-1.6 -1.6,-1.6c-0.9,0 -1.4,0.5 -1.2,1.2Z" style="fill:#313131;fill-rule:nonzero;"/>
    <path d="M1137.2,439.1c0.2,0.6 0.8,1 1.3,1c0.5,0 1.1,-0.4 1.3,-1c0.2,-0.6 -0.4,-1.1 -1.3,-1.1c-0.9,0 -1.5,0.5 -1.3,1.1Z" style="fill:#313131;fill-rule:nonzero;"/>
    <path d="M622.7,439.7c-1.2,1.1 -0.8,2.3 0.8,2.3c0.8,0 1.5,-0.7 1.5,-1.5c0,-1.6 -1.2,-2 -2.3,-0.8Z" style="fill:#313131;fill-rule:nonzero;"/>
    <path d="M989,440.4c0,0.9 0.7,1.6 1.6,1.6c1.7,0 1.4,-2.2 -0.4,-2.8c-0.7,-0.2 -1.2,0.3 -1.2,1.2Z" style="fill:#313131;fill-rule:nonzero;"/>
    <path d="M1125.7,439.7c-1.2,1.1 -0.8,2.3 0.8,2.3c0.8,0 1.5,-0.7 1.5,-1.5c0,-1.6 -1.2,-2 -2.3,-0.8Z" style="fill:#313131;fill-rule:nonzero;"/>
    <path d="M1047.2,442.1c0.2,0.6 0.8,1 1.3,1c0.5,0 1.1,-0.4 1.3,-1c0.2,-0.6 -0.4,-1.1 -1.3,-1.1c-0.9,0 -1.5,0.5 -1.3,1.1Z" style="fill:#313131;fill-rule:nonzero;"/>
    <path d="M1053.2,442.1c0.2,0.6 0.8,1 1.3,1c0.5,0 1.1,-0.4 1.3,-1c0.2,-0.6 -0.4,-1.1 -1.3,-1.1c-0.9,0 -1.5,0.5 -1.3,1.1Z" style="fill:#313131;fill-rule:nonzero;"/>
    <path d="M986.5,444c-0.4,0.6 -0.3,1.6 0.3,2.2c0.6,0.6 1.2,0.6 1.7,-0.2c0.4,-0.6 0.3,-1.6 -0.3,-2.2c-0.6,-0.6 -1.2,-0.6 -1.7,0.2Z" style="fill:#313131;fill-rule:nonzero;"/>
    <path d="M1062.3,445.1c-3.9,1.4 -2.7,3 2,2.7c2.3,-0.2 4.1,-0.7 4,-1.3c-0.3,-1.5 -3.6,-2.3 -6,-1.4Z" style="fill:#313131;fill-rule:nonzero;"/>
    <path d="M1146,445.3c0,0.7 1,2.3 2.1,3.6c2.9,3.1 4.7,1.3 2.4,-2.3c-1.8,-2.7 -4.5,-3.5 -4.5,-1.3Z" style="fill:#313131;fill-rule:nonzero;"/>
    <path d="M960,445.9c0,0.5 0.5,1.3 1,1.6c0.6,0.3 1,0.2 1,-0.4c0,-0.5 -0.4,-1.3 -1,-1.6c-0.5,-0.3 -1,-0.2 -1,0.4Z" style="fill:#313131;fill-rule:nonzero;"/>
    <path d="M1053.6,446.7c-1.1,1.1 -0.6,2.3 0.9,2.3c0.8,0 1.5,-0.4 1.5,-0.9c0,-1.3 -1.6,-2.2 -2.4,-1.4Z" style="fill:#313131;fill-rule:nonzero;"/>
    <path d="M1139.7,452.1c-5,3.1 -5.5,4 -3.3,5.8c1.1,0.9 2.1,0.6 4.5,-1.5c3.5,-3 5.5,-6 4.3,-6.8c-0.4,-0.2 -2.9,0.9 -5.5,2.5Z" style="fill:#313131;fill-rule:nonzero;"/>
    <path d="M748.7,452.7c-1.2,1.1 -0.8,2.3 0.8,2.3c0.8,0 1.5,-0.7 1.5,-1.5c0,-1.6 -1.2,-2 -2.3,-0.8Z" style="fill:#313131;fill-rule:nonzero;"/>
    <path d="M1076.2,455.1c0.2,0.6 0.8,1 1.3,1c0.5,0 1.1,-0.4 1.3,-1c0.2,-0.6 -0.4,-1.1 -1.3,-1.1c-0.9,0 -1.5,0.5 -1.3,1.1Z" style="fill:#313131;fill-rule:nonzero;"/>
    <path d="M1130,455.6c0,0.9 0.5,1.4 1.2,1.2c1.8,-0.6 2.1,-2.8 0.4,-2.8c-0.9,0 -1.6,0.7 -1.6,1.6Z" style="fill:#313131;fill-rule:nonzero;"/>
    <path d="M1045.5,455.9c-0.7,1.2 1.2,2.4 2.5,1.6c1.1,-0.7 0.4,-2.5 -1,-2.5c-0.5,0 -1.1,0.4 -1.5,0.9Z" style="fill:#313131;fill-rule:nonzero;"/>
    <path d="M1082,456.4c0,0.9 0.7,1.6 1.6,1.6c0.9,0 1.4,-0.5 1.2,-1.2c-0.6,-1.8 -2.8,-2.1 -2.8,-0.4Z" style="fill:#313131;fill-rule:nonzero;"/>
    <path d="M747,459.5c0,0.9 0.5,1.5 1.1,1.3c0.6,-0.2 1.1,-0.8 1.1,-1.3c0,-0.5 -0.5,-1.1 -1.1,-1.3c-0.6,-0.2 -1.1,0.4 -1.1,1.3Z" style="fill:#313131;fill-rule:nonzero;"/>
    <path d="M981.2,460.1c0.7,2.2 5.1,3.9 14.1,5.5c4.5,0.8 9.5,2 11,2.6c3.3,1.3 4.5,0.5 2.7,-1.7c-2.3,-2.8 -7.3,-4.9 -13.5,-5.6c-3.3,-0.5 -8,-1.1 -10.4,-1.5c-3.5,-0.6 -4.3,-0.4 -3.9,0.7Z" style="fill:#313131;fill-rule:nonzero;"/>
    <path d="M1008.4,460.1c-1,1.7 1.3,3.6 2.7,2.2c1.2,-1.2 0.4,-3.3 -1.1,-3.3c-0.5,0 -1.2,0.5 -1.6,1.1Z" style="fill:#313131;fill-rule:nonzero;"/>
    <path d="M1015.5,460c-0.4,0.6 -0.3,1.6 0.3,2.2c0.6,0.6 1.2,0.6 1.7,-0.2c0.4,-0.6 0.3,-1.6 -0.3,-2.2c-0.6,-0.6 -1.2,-0.6 -1.7,0.2Z" style="fill:#313131;fill-rule:nonzero;"/>
    <path d="M1037,462.6c0,0.9 0.5,1.4 1.2,1.2c1.8,-0.6 2.1,-2.8 0.4,-2.8c-0.9,0 -1.6,0.7 -1.6,1.6Z" style="fill:#313131;fill-rule:nonzero;"/>
    <path d="M1057.6,462.7c-1.1,1.1 -0.6,2.3 0.9,2.3c0.8,0 1.5,-0.4 1.5,-0.9c0,-1.3 -1.6,-2.2 -2.4,-1.4Z" style="fill:#313131;fill-rule:nonzero;"/>
    <path d="M1069,465.5c0,0.8 0.9,1.5 2,1.5c1.1,0 2,-0.7 2,-1.5c0,-0.8 -0.9,-1.5 -2,-1.5c-1.1,0 -2,0.7 -2,1.5Z" style="fill:#313131;fill-rule:nonzero;"/>
    <path d="M748.7,465.7c-1.2,1.1 -0.8,2.3 0.8,2.3c0.8,0 1.5,-0.7 1.5,-1.5c0,-1.6 -1.2,-2 -2.3,-0.8Z" style="fill:#313131;fill-rule:nonzero;"/>
    <path d="M1063.6,465.7c-1.1,1.1 -0.6,2.3 0.9,2.3c0.8,0 1.5,-0.4 1.5,-0.9c0,-1.3 -1.6,-2.2 -2.4,-1.4Z" style="fill:#313131;fill-rule:nonzero;"/>
    <path d="M1052.5,467.2c-2.6,1.4 -8.5,7 -8.5,8c0,1.6 3.7,0.7 7.8,-1.9c4.2,-2.7 5.7,-4.7 4.6,-6.4c-0.7,-1.1 -1.4,-1.1 -3.9,0.3Z" style="fill:#313131;fill-rule:nonzero;"/>
    <path d="M1014,468.5c0,0.9 0.5,1.5 1.1,1.3c0.6,-0.2 1.1,-0.8 1.1,-1.3c0,-0.5 -0.5,-1.1 -1.1,-1.3c-0.6,-0.2 -1.1,0.4 -1.1,1.3Z" style="fill:#313131;fill-rule:nonzero;"/>
    <path d="M1043,468.5c0,0.9 0.5,1.5 1.1,1.3c0.6,-0.2 1.1,-0.8 1.1,-1.3c0,-0.5 -0.5,-1.1 -1.1,-1.3c-0.6,-0.2 -1.1,0.4 -1.1,1.3Z" style="fill:#313131;fill-rule:nonzero;"/>
    <path d="M1019.7,468.6c-1.2,1.2 0.4,2.4 3.4,2.4c3.1,0 3.9,-1.4 1.3,-2.4c-2,-0.8 -3.9,-0.8 -4.7,0Z" style="fill:#313131;fill-rule:nonzero;"/>
    <path d="M1031.4,469.1c-0.6,1 1.1,2.9 2.6,2.9c0.3,0 1.1,-0.4 1.9,-0.9c1.7,-1.1 0.5,-3.1 -1.9,-3.1c-1,0 -2.2,0.5 -2.6,1.1Z" style="fill:#313131;fill-rule:nonzero;"/>
    <path d="M1028.2,474.1c0.2,0.6 0.8,1 1.3,1c0.5,0 1.1,-0.4 1.3,-1c0.2,-0.6 -0.4,-1.1 -1.3,-1.1c-0.9,0 -1.5,0.5 -1.3,1.1Z" style="fill:#313131;fill-rule:nonzero;"/>
    <path d="M1037,475.5c0,0.9 0.5,1.5 1.1,1.3c0.6,-0.2 1.1,-0.8 1.1,-1.3c0,-0.5 -0.5,-1.1 -1.1,-1.3c-0.6,-0.2 -1.1,0.4 -1.1,1.3Z" style="fill:#313131;fill-rule:nonzero;"/>
    <path d="M1145.5,477.9c-0.7,1.2 1.2,2.4 2.5,1.6c1.1,-0.7 0.4,-2.5 -1,-2.5c-0.5,0 -1.1,0.4 -1.5,0.9Z" style="fill:#313131;fill-rule:nonzero;"/>
    <path d="M1074,481.4c0,0.8 -0.8,2 -1.9,2.5c-2.6,1.4 -6.1,8.5 -5.4,11c0.5,1.9 0.1,2.1 -3.9,2.1c-3,0 -5.4,-0.7 -7.1,-2c-1.4,-1.1 -2.7,-2 -3,-2c-1.3,0 -8.7,8.5 -8.3,9.5c0.2,0.7 0,1.8 -0.4,2.6c-0.7,1.1 -1.3,1 -2.9,-0.5c-2.1,-1.9 -2.1,-1.9 -2.1,1.5c0,5 -4.3,8.7 -18,15.6c-14.1,7.1 -15.7,9.1 -12.2,15.5c1.2,2.4 2.2,5 2.2,5.9c0,2.8 -1.4,3.1 -3.2,0.7c-2.7,-3.5 -2.2,-0.2 0.7,4.7c3.1,5.4 6.7,19.1 6.7,26.1c0.1,4.6 0.5,5.8 2.6,7.4c3.3,2.6 5.5,2.5 10.6,-0.5c2.3,-1.4 6.6,-2.9 9.5,-3.5c2.9,-0.5 7.1,-2.3 9.4,-3.9c6.1,-4.2 18.7,-6.6 25,-4.7c6,1.8 9.9,4.7 12.2,9c1.1,2 2.2,3.6 2.5,3.6c0.3,0 1.6,-2 2.9,-4.5c2.9,-5.4 5.6,-6.2 4.8,-1.3c-0.3,1.8 -0.9,4.1 -1.3,5.2c-0.6,1.6 -0.4,1.7 1.3,0.8c2.3,-1.3 3.3,-0.7 3.3,2c0,1 1.4,3.7 3,6c1.7,2.2 3,4.7 3,5.4c0,3.1 9.5,4.9 12.5,2.4c1.3,-1.1 2,-0.9 4.5,1.5l3,2.9l3.3,-3.1c1.7,-1.7 4.3,-3.3 5.6,-3.5c2.9,-0.4 2.8,-0.3 8,-14.8c4.5,-12.4 6.5,-21.8 7.6,-34.6l0.7,-8.2l-3.6,-1.7c-3.6,-1.7 -12.6,-12.3 -12.6,-14.8c0,-0.6 -1.3,-1.9 -2.9,-2.8c-3.6,-2.1 -7.6,-10.6 -8.4,-17.8c-0.4,-3.5 -1.5,-6.5 -3.1,-8.6c-1.4,-1.8 -3.1,-5.4 -3.8,-7.9c-0.7,-2.5 -1.5,-4.6 -1.9,-4.6c-1.1,0 -2.7,4.9 -4.3,12.7c-1.8,8.6 -5,16.3 -6.8,16.3c-0.7,0 -4.4,-2.4 -8.3,-5.3c-8.1,-6 -8.8,-8 -5.6,-15.3c1.2,-2.6 2,-4.8 1.9,-4.9c-1.5,-0.9 -7.2,-2.5 -11,-3.1c-4,-0.5 -4.8,-0.4 -4.8,1Z" style="fill:#313131;fill-rule:nonzero;"/>
    <path d="M757.6,481.7c-1.1,1.1 -0.6,2.3 0.9,2.3c0.8,0 1.5,-0.4 1.5,-0.9c0,-1.3 -1.6,-2.2 -2.4,-1.4Z" style="fill:#313131;fill-rule:nonzero;"/>
    <path d="M761.7,484.6c-0.8,0.8 0.1,2.4 1.4,2.4c0.5,0 0.9,-0.7 0.9,-1.5c0,-1.5 -1.2,-2 -2.3,-0.9Z" style="fill:#313131;fill-rule:nonzero;"/>
    <path d="M778.3,489.9c-1.6,3.9 -3.2,5.6 -7.6,8.4c-6.8,4.4 -7.7,5.9 -7.7,13.5c0,3.3 -0.7,7.6 -1.5,9.5c-1.9,4.7 -1.9,8.2 0.1,14.1c1.9,5.6 3.4,6.4 8,4.3c3.8,-1.8 3.8,-1.8 9.9,-27.9c2.8,-11.7 3.6,-16.8 3.1,-20c-1.1,-6.9 -2,-7.3 -4.3,-1.9Z" style="fill:#313131;fill-rule:nonzero;"/>
    <path d="M766.6,488.7c-1.1,1.1 -0.6,2.3 0.9,2.3c0.8,0 1.5,-0.4 1.5,-0.9c0,-1.3 -1.6,-2.2 -2.4,-1.4Z" style="fill:#313131;fill-rule:nonzero;"/>
    <path d="M1091,490c0,0.5 0.5,1 1,1c0.6,0 1,-0.5 1,-1c0,-0.6 -0.4,-1 -1,-1c-0.5,0 -1,0.4 -1,1Z" style="fill:#313131;fill-rule:nonzero;"/>
    <path d="M1188,520.4c0,1.6 4.2,4.6 6.5,4.6c2.2,0 1.8,-2.7 -0.7,-4.4c-2.8,-2 -5.8,-2.1 -5.8,-0.2Z" style="fill:#313131;fill-rule:nonzero;"/>
    <path d="M1218,583.4c0,0.3 1.4,3 3,5.9c3.4,6 3.7,8.5 1.5,12.6c-1.3,2.7 -1.3,2.9 1,3.9c1.7,0.8 2.5,2 2.5,3.8c0,3.4 2.1,2.7 4.1,-1.6c0.9,-1.8 2.3,-3.8 3.2,-4.5c0.9,-0.6 1.9,-2.3 2.2,-3.8c0.6,-2.4 0.4,-2.7 -1.8,-2.7c-1.7,0 -2.6,-0.7 -3,-2.1c-0.5,-1.7 -0.9,-1.9 -2.5,-1c-1.8,1 -2.3,0.6 -4.1,-3.3c-1.9,-3.9 -6.1,-8.9 -6.1,-7.2Z" style="fill:#313131;fill-rule:nonzero;"/>
    <path d="M1089.2,587.1c0.2,0.6 0.8,1 1.3,1c0.5,0 1.1,-0.4 1.3,-1c0.2,-0.6 -0.4,-1.1 -1.3,-1.1c-0.9,0 -1.5,0.5 -1.3,1.1Z" style="fill:#313131;fill-rule:nonzero;"/>
    <path d="M1128.2,606.1c0.2,0.6 0.8,1 1.3,1c0.5,0 1.1,-0.4 1.3,-1c0.2,-0.6 -0.4,-1.1 -1.3,-1.1c-0.9,0 -1.5,0.5 -1.3,1.1Z" style="fill:#313131;fill-rule:nonzero;"/>
    <path d="M1115.2,607.2c0.6,1.8 2.8,2.1 2.8,0.4c0,-0.9 -0.7,-1.6 -1.6,-1.6c-0.9,0 -1.4,0.5 -1.2,1.2Z" style="fill:#313131;fill-rule:nonzero;"/>
    <path d="M1120.4,614.5c1.7,6.6 2.5,7.6 5.8,7.3c2.6,-0.2 3.3,-0.9 4.3,-3.8c1.7,-4.7 0.4,-6 -5.7,-6c-4.8,0 -5,0.1 -4.4,2.5Z" style="fill:#313131;fill-rule:nonzero;"/>
    <path d="M1216,614.2c-1.1,1.3 -4.4,5 -7.4,8.3c-2.9,3.3 -6.7,8 -8.5,10.4l-3.2,4.5l4.8,1.2c6.6,1.8 8.1,1.1 9.4,-4.2c0.6,-2.4 2.4,-6.1 4,-8.1c1.6,-1.9 2.9,-4 2.9,-4.5c0,-0.6 0.9,-2.1 2,-3.5c1.5,-1.9 1.7,-3 0.9,-4.4c-1.3,-2.5 -2.5,-2.4 -4.9,0.3Z" style="fill:#313131;fill-rule:nonzero;"/>
    <path d="M337.7,617.3c-0.3,0.8 -0.1,2 0.4,2.8c1.1,1.9 3.4,-0.3 2.6,-2.5c-0.8,-2 -2.3,-2.1 -3,-0.3Z" style="fill:#313131;fill-rule:nonzero;"/>
    <path d="M1201,643.5c0,0.9 0.5,1.5 1.1,1.3c0.6,-0.2 1.1,-0.8 1.1,-1.3c0,-0.5 -0.5,-1.1 -1.1,-1.3c-0.6,-0.2 -1.1,0.4 -1.1,1.3Z" style="fill:#313131;fill-rule:nonzero;"/>
    <path d="M335.2,645.1c0.2,0.6 0.8,1 1.3,1c0.5,0 1.1,-0.4 1.3,-1c0.2,-0.6 -0.4,-1.1 -1.3,-1.1c-0.9,0 -1.5,0.5 -1.3,1.1Z" style="fill:#313131;fill-rule:nonzero;"/>
    <path d="M335,652.6c0,0.9 0.5,1.4 1.2,1.2c1.8,-0.6 2.1,-2.8 0.4,-2.8c-0.9,0 -1.6,0.7 -1.6,1.6Z" style="fill:#313131;fill-rule:nonzero;"/>
    <path d="M335.6,658.7c-1.1,1.1 -0.6,2.3 0.9,2.3c0.8,0 1.5,-0.4 1.5,-0.9c0,-1.3 -1.6,-2.2 -2.4,-1.4Z" style="fill:#313131;fill-rule:nonzero;"/>
    <path d="M339.6,668.9c-0.3,0.4 0.3,1.6 1.4,2.6c1.1,1 2,2.4 2,3.2c0,0.7 0.5,1.3 1.1,1.3c1,0 0.4,-5.2 -0.8,-7.3c-0.6,-1 -3.1,-0.9 -3.7,0.2Z" style="fill:#313131;fill-rule:nonzero;"/>
    <path d="M356.8,674.2c-0.2,2.8 -0.8,3.4 -3,3.6c-4,0.5 -3.4,2 1,2.7c2,0.4 4.9,1.1 6.4,1.7c3.2,1.2 5.8,0.5 5.8,-1.5c0,-1.4 -7.8,-9.7 -9.1,-9.7c-0.4,0 -0.9,1.5 -1.1,3.2Z" style="fill:#313131;fill-rule:nonzero;"/>
    <path d="M373,680c0,0.5 0.7,1 1.5,1c0.8,0 1.5,-0.5 1.5,-1c0,-0.6 -0.7,-1 -1.5,-1c-0.8,0 -1.5,0.4 -1.5,1Z" style="fill:#313131;fill-rule:nonzero;"/>
    <path d="M355.5,685c-0.4,0.7 -0.3,1.6 0.3,2.2c1.4,1.4 4.5,0.2 4,-1.5c-0.6,-1.6 -3.4,-2.1 -4.3,-0.7Z" style="fill:#313131;fill-rule:nonzero;"/>
  </g>
</svg>